<?xml version="1.0" encoding="UTF-8" standalone="no"?>
<!-- Generator: Adobe Illustrator 27.5.0, SVG Export Plug-In . SVG Version: 6.00 Build 0)  -->

<svg
   version="1.1"
   x="0px"
   y="0px"
   viewBox="0 0 500 500"
   style="enable-background:new 0 0 500 500;"
   xml:space="preserve"
   id="svg1317"
   sodipodi:docname="ENGINE ROOM.svg"
   inkscape:version="1.1.1 (c3084ef, 2021-09-22)"
   xmlns:inkscape="http://www.inkscape.org/namespaces/inkscape"
   xmlns:sodipodi="http://sodipodi.sourceforge.net/DTD/sodipodi-0.dtd"
   xmlns="http://www.w3.org/2000/svg"
   xmlns:svg="http://www.w3.org/2000/svg"><defs
   id="defs1321">
	
	
	
	

		
		
		
		
		
		
		
		
		
		
		
		
		
		
		
		
		
		
		
		
		
		
		
		
		
		
		
		
		
		
		
		
		
		
		
		
		
	</defs><sodipodi:namedview
   id="namedview1319"
   pagecolor="#ffffff"
   bordercolor="#666666"
   borderopacity="1.0"
   inkscape:pageshadow="2"
   inkscape:pageopacity="0.0"
   inkscape:pagecheckerboard="0"
   showgrid="false"
   inkscape:zoom="0.68812108"
   inkscape:cx="259.40202"
   inkscape:cy="100.27305"
   inkscape:window-width="1440"
   inkscape:window-height="900"
   inkscape:window-x="0"
   inkscape:window-y="0"
   inkscape:window-maximized="0"
   inkscape:current-layer="layer3" />
<g
   id="BACKGROUND">
</g>


<g
   inkscape:groupmode="layer"
   id="layer1"
   inkscape:label="Layer 1"><path
     style="fill:#808080;stroke-width:2.15825"
     d="m 96.066966,150.25506 -0.46559,105.03455 16.032054,34.96383 c 0,0 1.26096,40.29405 24.56293,58.02179 23.30197,17.7299 55.24698,33.69811 116.03567,33.96757 60.79084,0.26947 92.87402,-15.41492 116.33224,-32.93754 23.45823,-17.52263 25.07634,-57.80175 25.07634,-57.80175 l 16.34139,-34.82034 0.4656,-105.03454 -6.7825,-11.90056 1.47648,-333.08599 6.97702,-31.98272 0.42254,-95.32251 -11.24539,-19.29516 c 0,0 -0.11298,-14.92927 -5.02112,-44.08769 -14.06204,-73.804 -140.35513,-66.08901 -140.35513,-66.08901 0,0 -126.21974,-8.83216 -140.93552,64.84212 -5.16429,29.11377 -5.41176,44.04145 -5.41176,44.04145 l -11.416014,19.19469 -0.42255,95.32252 6.693214,32.04331 -1.47648,333.086 z"
     id="path1141" /><rect
     style="fill:#f2f2f2;fill-rule:evenodd;stroke:#000000;stroke-width:9.15164;stroke-linecap:round;stroke-linejoin:round;stroke-opacity:0.0108933"
     id="rect2740"
     width="240.66518"
     height="187.64079"
     x="132.94768"
     y="150.46465"
     ry="7.2539229" /></g><g
   inkscape:groupmode="layer"
   id="layer2"
   inkscape:label="Layer 2"><g
     id="g3404"
     transform="translate(783.36861,347.52009)"><rect
       style="fill:#4d4d4d;fill-rule:evenodd;stroke:#000000;stroke-width:7.28058;stroke-linecap:round;stroke-linejoin:round;stroke-opacity:0.0108933"
       id="rect3116"
       width="118.12795"
       height="135.87006"
       x="-588.74634"
       y="-160.2153"
       ry="4.0241246" /><rect
       style="fill:#4d4d4d;fill-rule:evenodd;stroke:#000000;stroke-width:8.57264;stroke-linecap:round;stroke-linejoin:round;stroke-opacity:0.0108933"
       id="rect3314"
       width="144.74245"
       height="90.774216"
       x="-603.13196"
       y="-134.43124"
       ry="5.2916527" /><rect
       style="fill:#000000;fill-rule:evenodd;stroke:#000000;stroke-width:8;stroke-linecap:round;stroke-linejoin:round;stroke-opacity:0.0108933"
       id="rect3006"
       width="26.158188"
       height="106.08598"
       x="-542.05579"
       y="-143.87003"
       ry="5.33709" /><rect
       style="fill:#000000;fill-rule:evenodd;stroke:#000000;stroke-width:8;stroke-linecap:round;stroke-linejoin:round;stroke-opacity:0.0108933"
       id="rect3008"
       width="104.63275"
       height="13.079094"
       x="-584.19952"
       y="-126.43124"
       ry="5.33709" /><rect
       style="fill:#000000;fill-rule:evenodd;stroke:#000000;stroke-width:8;stroke-linecap:round;stroke-linejoin:round;stroke-opacity:0.0108933"
       id="rect3010"
       width="104.63275"
       height="13.079094"
       x="-584.19952"
       y="-100.43124"
       ry="5.33709" /><rect
       style="fill:#000000;fill-rule:evenodd;stroke:#000000;stroke-width:8;stroke-linecap:round;stroke-linejoin:round;stroke-opacity:0.0108933"
       id="rect3092"
       width="104.63275"
       height="13.079094"
       x="-584.19952"
       y="-70.431236"
       ry="5.33709" /></g><circle
     style="fill:#4d4d4d;fill-rule:evenodd;stroke:#000000;stroke-width:8;stroke-linecap:round;stroke-linejoin:round;stroke-opacity:0.0108933"
     id="path3428"
     cx="350.22906"
     cy="188.92024"
     r="14.532327" /><ellipse
     style="fill:#4d4d4d;fill-rule:evenodd;stroke:#000000;stroke-width:11.3684;stroke-linecap:round;stroke-linejoin:round;stroke-opacity:0.0108933"
     id="circle3430"
     cx="155.30884"
     cy="309.62518"
     rx="12.848115"
     ry="33.193371" /><rect
     style="fill:#4d4d4d;fill-rule:evenodd;stroke:#000000;stroke-width:6.56738;stroke-linecap:round;stroke-linejoin:round;stroke-opacity:0.0108933"
     id="rect3534"
     width="33.40374"
     height="31.017761"
     x="141.02484"
     y="175.16634"
     ry="4.3813353" /><ellipse
     style="fill:#000000;fill-rule:evenodd;stroke:#000000;stroke-width:8;stroke-linecap:round;stroke-linejoin:round;stroke-opacity:0.0108933"
     id="path3638"
     cx="157.67574"
     cy="191.10008"
     rx="7.9927793"
     ry="6.539547" /><rect
     style="fill:#000000;fill-rule:evenodd;stroke:#000000;stroke-width:8.57402;stroke-linecap:round;stroke-linejoin:round;stroke-opacity:0.0108933"
     id="rect3760"
     width="143.29602"
     height="9.598608"
     x="183.32538"
     y="323.46185"
     ry="4.799304" /></g><g
   inkscape:groupmode="layer"
   id="layer3"
   inkscape:label="Layer 3"><path
     style="fill:#1c191a;stroke-width:2.15825"
     d="m 386.4971,118.08925 c 0,0 -42.63602,-119.4334994 -32.43369,-229.9997 10.20233,-110.5662 15.03308,-145.25626 28.51293,-184.0454 2.62078,58.28495 9.81707,382.415868 3.92076,414.0451 z"
     id="path1149" /><path
     style="fill:#878fb3;stroke-width:2.15825"
     d="m 255.5268,-360.54848 c 88.83918,0.39381 104.57311,22.76281 104.57525,22.76498 l -0.94772,-70.05739 c 0,0 5.22266,-21.82935 -30.08605,-29.27002 -35.30872,-7.44069 -73.17197,-6.79917 -73.17197,-6.79917 z"
     id="path1151" /><path
     style="fill:#ef4136;stroke-width:2.15825"
     d="m 359.15217,-407.84089 c 0,0 24.69207,6.97923 33.13033,32.43028 l 2.42145,-15.06479 c 0,0 -14.95534,-31.98282 -41.21563,-34.77117 v 0.002 c 7.79941,8.40868 5.66385,17.40352 5.66385,17.40352 z"
     id="path1153" /><path
     style="fill:#414042;stroke-width:2.15825"
     d="m 314.53177,366.87148 5.82775,-16.16119 c 0,0 -22.69888,8.35332 -68.02169,8.15242 l -0.0718,16.18672 c 21.5823,0.0935 56.86055,-6.04363 62.26569,-8.17795 z"
     id="path1155" /><path
     style="fill:#a7a9ac;stroke-width:2.15825"
     d="m 323.01585,360.07385 3.54675,-10.8706 c 0.85768,-2.62713 2.85256,-4.71828 5.4318,-5.71261 12.16968,-4.68778 47.93087,-19.95874 54.48928,-39.79009 l -0.0638,14.38892 c 0,0 -15.41011,27.76476 -63.40404,41.98438 z"
     id="path1157" /><g
     id="g1165"
     transform="matrix(0.00956688,-2.1582292,2.1582292,0.00956688,-531.15364,502.01188)">
			<path
   style="fill:#2b2a2b"
   d="m 260.267,424.757 c 2.682,-0.047 5.381,-0.096 8.09,-0.148 l 4.306,-16.365 c -1.717,-0.017 -3.433,-0.013 -5.145,0.013 z"
   id="path1161" />
			<path
   style="fill:#2b2a2b"
   d="M 342.424,422.777 326.41,412.762 c -1.231,-0.139 -2.491,-0.279 -3.791,-0.419 l 16.297,10.541 c 1.191,-0.036 2.358,-0.072 3.508,-0.107 z"
   id="path1163" />
		</g><path
     style="fill:#666666;stroke-width:2.15825"
     d="m 409.98416,256.68318 0.46559,-105.03455 -6.78249,-11.90055 1.47648,-333.086 6.97702,-31.98271 0.42255,-95.32252 -11.24541,-19.29515 c 0,0 -0.11297,-14.92927 -5.02111,-44.08769 -0.42396,-2.22058 -0.95402,-4.36609 -1.57289,-6.44078 l -2.4214,15.05616 c 0,0 11.71234,197.81219 8.59223,293.073106 -3.12011,95.260915 -0.3549,323.510404 -14.39105,386.038054 l -0.0638,14.38892 1.6215,1.80287 c 5.04481,-14.81576 5.59922,-28.38883 5.59922,-28.38883 z"
     id="path1167" /><path
     style="fill:#000000;stroke-width:2.15825"
     d="m 391.42747,97.439178 20.35349,-8.01193 c 3.54575,-1.39579 6.62319,-3.77136 8.87064,-6.84773 l 2.36035,-3.2291 c 1.84355,-2.52348 -0.53042,-5.95702 -3.54276,-5.12217 l -23.37261,6.48344 c -2.37485,0.65853 -4.18985,2.57999 -4.71204,4.98846 l -0.43624,2.01174 -2.61699,0.75027 c -1.18425,0.34006 -2.20206,1.11254 -2.80896,2.18251 -0.0196,0.0344 -0.0392,0.0689 -0.0587,0.10543 -2.1539,3.88182 1.83436,8.31532 5.96387,6.68903 z"
     id="path1169" /><path
     style="fill:#1c191a;stroke-width:2.15825"
     d="m 120.31621,116.90934 c 0,0 43.69315,-119.0508264 34.47143,-229.70313 -9.22174,-110.6523 -13.74476,-145.38383 -26.8802,-184.29095 -3.13738,58.25943 -13.20691,382.313808 -7.59123,413.99408 z"
     id="path1171" /><path
     style="fill:#646a8f;stroke-width:2.15825"
     d="m 255.5268,-360.54848 c -88.83919,-0.3938 -104.77081,21.83485 -104.77298,21.83699 l 1.56877,-70.04622 c 0,0 -5.02893,-21.8748 30.34436,-29.00217 35.3733,-7.12736 73.22936,-6.1502 73.22936,-6.1502 z"
     id="path1173" /><path
     style="fill:#ef4136;stroke-width:2.15825"
     d="m 152.32259,-408.75771 c 0,0 -24.75296,6.76005 -33.41652,32.13529 l -2.28781,-15.08567 c 0,0 15.2383,-31.84897 41.52227,-34.4044 l -1e-5,0.002 c -7.87366,8.33919 -5.81793,17.35262 -5.81793,17.35262 z"
     id="path1175" /><path
     style="fill:#1c191a;stroke-width:2.15825"
     d="m 190.07316,366.31979 -5.68424,-16.21223 c 0,0 22.62393,8.55423 67.94675,8.75514 l -0.0718,16.18672 c -21.58013,-0.0978 -56.80474,-6.54748 -62.19075,-8.72963 z"
     id="path1177" /><path
     style="fill:#a7a9ac;stroke-width:2.15825"
     d="M 181.65184,359.44722 178.2016,348.5456 c -0.83435,-2.63463 -2.81062,-4.74339 -5.38093,-5.76053 -12.12765,-4.79549 -47.75205,-20.38288 -54.13439,-40.27159 l -0.0638,14.38891 c -0.002,-1e-5 15.16121,27.90028 63.02935,42.54483 z"
     id="path1179" /><path
     style="fill:#2b2a2b;stroke-width:2.15825"
     d="m 120.29641,-56.827302 c 0.12709,-5.787921 0.25867,-11.612513 0.39681,-17.458659 l 35.36062,-9.136773 c 0.0224,3.705852 -0.005,7.409325 -0.0772,11.103965 z"
     id="path1183" /><path
     style="fill:#2b2a2b;stroke-width:2.15825"
     d="m 125.35353,-234.12201 21.46147,34.6577 c 0.28821,2.65811 0.57831,5.37882 0.86802,8.18585 l -22.59398,-35.2735 c 0.0891,-2.57011 0.17796,-5.08842 0.26449,-7.57005 z"
     id="path1185" /><path
     style="fill:#4d4d4d;stroke-width:2.15825"
     d="m 95.601376,255.28961 0.46559,-105.03455 6.887734,-11.83996 1.47649,-333.086 -6.693214,-32.04331 0.42255,-95.32251 11.416004,-19.19471 c 0,0 0.24531,-14.92768 5.41178,-44.04144 0.44363,-2.21673 0.99269,-4.35746 1.62992,-6.42658 l 2.28784,15.07703 c 0,0 -13.46555,197.70059 -11.19009,292.985417 2.27547,95.284825 -2.51313,323.500823 10.96814,386.150473 l -0.0638,14.38891 -1.63742,1.78843 c -4.91326,-14.85991 -5.34732,-28.43735 -5.34732,-28.43735 z"
     id="path1187" /><path
     style="fill:#000000;stroke-width:2.15825"
     d="m 115.56909,96.216368 -20.281654,-8.19206 c -3.53325,-1.42717 -6.58951,-3.82992 -8.811745,-6.9261 l -2.331636,-3.2499 c -1.821115,-2.53973 0.583218,-5.95209 3.588031,-5.09057 l 23.314214,6.69039 c 2.36892,0.67956 4.16681,2.61704 4.66763,5.03005 l 0.4184,2.01551 2.61024,0.77345 c 1.18118,0.35056 2.1921,1.13201 2.78949,2.20733 0.0193,0.0346 0.0385,0.0692 0.0578,0.10601 2.12156,3.90077 -1.90585,8.29874 -6.02077,6.6359 z"
     id="path1189" /><g
     id="g1195"
     transform="matrix(0.00956688,-2.1582292,2.1582292,0.00956688,-531.15364,502.01188)">
			<g
   id="g1193">
				<path
   style="fill:#525878"
   d="m 342.706,405.345 -0.074,0.998 c -91.477,-6.849 -128.475,3.594 -128.838,3.699 l -0.281,-0.959 c 0.364,-0.107 37.495,-10.602 129.193,-3.738 z"
   id="path1191" />
			</g>
		</g><g
     id="g1201"
     transform="matrix(0.00956688,-2.1582292,2.1582292,0.00956688,-531.15364,502.01188)">
			<g
   id="g1199">
				<path
   style="fill:#434b6b"
   d="m 342.706,320.102 -0.074,-0.998 c -91.477,6.849 -128.475,-3.594 -128.838,-3.699 l -0.281,0.959 c 0.364,0.107 37.495,10.602 129.193,3.738 z"
   id="path1197" />
			</g>
		</g><path
     style="fill:#1c191a;stroke-width:2.15825;fill-opacity:1"
     d="m 352.09985,26.749802 c 0,0 -35.29102,9.01622 -98.33074,8.736771 l -0.62783,141.633797 c 0,0 75.61791,2.76326 116.21506,-26.46324 10.28627,-7.77814 11.93244,-13.97587 10.3365,-19.10884 -1.59595,-5.13297 -27.59299,-104.798488 -27.59299,-104.798488 z"
     id="path1203" /><path
     style="fill:#414042;stroke-width:2.15825"
     d="m 348.44503,-223.80505 11.65701,-113.9763 c 0,0 -15.72743,-22.37113 -104.57525,-22.76497 l -0.57242,129.13333 c 10e-6,-0.002 64.02284,1.0025 93.49066,7.60794 z"
     id="path1205" /><path
     style="fill:#1c191a;stroke-width:2.15825"
     d="m 155.52185,25.878422 c 0,0 35.20971,9.328726 98.24942,9.608163 l -0.62783,141.633795 c 0,0 -75.63943,2.09277 -115.97588,-27.49248 -10.2169,-7.86902 -11.80807,-14.08111 -10.16668,-19.19973 1.6414,-5.11863 28.52097,-104.549748 28.52097,-104.549748 z"
     id="path1207" /><path
     style="fill:#1c191a;stroke-width:2.15825"
     d="m 161.39777,-224.63418 -10.64612,-114.07516 c 0,0 15.92516,-22.23083 104.77298,-21.83699 l -0.57242,129.13333 c 0.002,-0.002 -64.02922,0.43488 -93.55444,6.77882 z"
     id="path1209" /><path
     style="fill:#58595b;stroke-width:2.15825"
     d="m 347.34821,-346.40838 c -4.95592,-2.31621 -11.68955,-4.78922 -20.7401,-7.01567 l -6.18098,125.54733 c 5.1064,0.50393 10.0614,1.07841 14.68584,1.72912 z"
     id="path1217" /><path
     style="fill:#2b2a2b;stroke-width:2.15825"
     d="m 163.58146,-347.22297 c 4.97626,-2.27218 11.73155,-4.68539 20.8015,-6.83153 l 5.06771,125.59719 c -5.1085,0.45865 -10.07057,0.98917 -14.7006,1.59886 z"
     id="path1219" /><path
     style="fill:#58595b;stroke-width:2.15825"
     d="m 286.63932,-230.297 c 6.86393,0.34554 14.30798,0.79508 21.76873,1.37204 l 5.39388,-127.16304 c -7.60634,-1.32437 -16.42656,-2.4426 -26.59068,-3.2301 z"
     id="path1221" /><g
     id="g1227"
     transform="matrix(0.00956688,-2.1582292,2.1582292,0.00956688,-531.15364,502.01188)">
			<path
   style="fill:#2b2a2b"
   d="m 292.228,409.418 c -1.938,-0.173 -3.911,-0.348 -5.959,-0.527 -1.24,-0.109 -2.483,-0.199 -3.728,-0.28 l -1.314,15.74 c 4.613,-0.098 9.215,-0.2 13.764,-0.305 z"
   id="path1223" />
			<path
   style="fill:#2b2a2b"
   d="m 239.49,425.074 10.52,-15.852 c -6.661,0.615 -13.141,1.48 -19.302,2.488 l -12.611,13.557 c 6.639,-0.03 13.84,-0.098 21.393,-0.193 z"
   id="path1225" />
		</g><g
     id="g1233"
     transform="matrix(0.00956688,-2.1582292,2.1582292,0.00956688,-531.15364,502.01188)">
			<path
   style="fill:#ffffff"
   d="m 75.027,399.229 c -0.71,0.858 -1.149,2.039 -1.149,3.344 0,2.623 1.772,4.75 3.958,4.75 0.26,0 0.514,-0.034 0.76,-0.092 -1.541,-3.105 -2.695,-5.89 -3.375,-7.631 -0.051,-0.131 -0.131,-0.246 -0.194,-0.371 z"
   id="path1229" />
			<path
   style="fill:#ffffff"
   d="m 80.211,413.138 c 0,1.667 1.045,3.019 2.333,3.019 0.384,0 0.74,-0.131 1.06,-0.344 -1.03,-1.472 -1.99,-3.017 -2.87,-4.559 -0.322,0.518 -0.523,1.168 -0.523,1.884 z"
   id="path1231" />
		</g><g
     id="g1239"
     transform="matrix(0.00956688,-2.1582292,2.1582292,0.00956688,-531.15364,502.01188)">
			<path
   style="fill:#ffffff"
   d="m 75.027,326.218 c -0.71,-0.858 -1.149,-2.039 -1.149,-3.344 0,-2.623 1.772,-4.75 3.958,-4.75 0.26,0 0.514,0.034 0.76,0.092 -1.541,3.105 -2.695,5.89 -3.375,7.631 -0.051,0.131 -0.131,0.246 -0.194,0.371 z"
   id="path1235" />
			<path
   style="fill:#ffffff"
   d="m 80.211,312.309 c 0,-1.667 1.045,-3.019 2.333,-3.019 0.384,0 0.74,0.131 1.06,0.344 -1.03,1.472 -1.99,3.016 -2.87,4.559 -0.322,-0.518 -0.523,-1.167 -0.523,-1.884 z"
   id="path1237" />
		</g></g></svg>
