<?xml version="1.0" encoding="UTF-8" standalone="no"?>
<!-- Generator: Adobe Illustrator 27.5.0, SVG Export Plug-In . SVG Version: 6.00 Build 0)  -->

<svg
   version="1.1"
   x="0px"
   y="0px"
   viewBox="0 0 800 800"
   style="enable-background:new 0 0 800 800;"
   xml:space="preserve"
   id="svg1361"
   sodipodi:docname="1089580_108299-ONMAOO-859.svg"
   inkscape:version="1.1.1 (c3084ef, 2021-09-22)"
   xmlns:inkscape="http://www.inkscape.org/namespaces/inkscape"
   xmlns:sodipodi="http://sodipodi.sourceforge.net/DTD/sodipodi-0.dtd"
   xmlns="http://www.w3.org/2000/svg"
   xmlns:svg="http://www.w3.org/2000/svg"><defs
   id="defs1365">
	
	
	
	
	
	
	
	
	
	
	
	
	
	
</defs><sodipodi:namedview
   id="namedview1363"
   pagecolor="#ffffff"
   bordercolor="#666666"
   borderopacity="1.0"
   inkscape:pageshadow="2"
   inkscape:pageopacity="0.0"
   inkscape:pagecheckerboard="0"
   showgrid="false"
   inkscape:zoom="0.65875"
   inkscape:cx="542.6945"
   inkscape:cy="376.47059"
   inkscape:window-width="1440"
   inkscape:window-height="900"
   inkscape:window-x="0"
   inkscape:window-y="0"
   inkscape:window-maximized="0"
   inkscape:current-layer="layer2" />

<g
   id="g863"
   transform="translate(759.01328,-320.30361)">
		<path
   style="clip-rule:evenodd;fill:#231f20;fill-rule:evenodd"
   d="m 726.754,225.629 c 0.032,-0.488 2.931,-4.656 2.963,-6.121 0.032,-1.465 -0.814,-2.507 -3.028,-2.377 -2.214,0.13 -8.824,1.335 -11.103,1.856 -2.279,0.521 -47.539,-12.503 -63.364,-14.522 -15.824,-2.019 -42.004,-3.973 -54.768,-1.368 -12.764,2.605 -51.934,19.797 -52.944,20.481 -1.01,0.684 -1.107,0.684 -1.107,0.684 0,0 -34.645,2.8 -47.278,4.949 -12.634,2.149 -34.905,10.778 -40.864,13.708 -5.958,2.931 -7.261,5.177 -7.619,6.024 -0.358,0.846 0.554,6.48 0.065,9.052 -0.488,2.572 -0.488,6.74 0.228,8.596 0.716,1.856 1.074,1.27 1.595,2.475 0.521,1.205 1.27,4.526 0.749,4.689 -0.521,0.163 -4.005,1.693 -3.419,2.703 0.586,1.009 13.383,3.126 16.443,3.419 3.061,0.293 4.493,0.391 4.493,0.391 0,0 -0.098,1.889 0.488,1.889 0.586,0 9.606,-1.596 9.606,-1.596 l 57.829,-0.977 c 0,0 116.242,-0.391 116.959,-1.107 0.716,-0.716 0.977,-1.823 0.977,-1.823 l 4.428,-0.391 49.883,-4.884 c 0,0 0.13,2.866 0.521,2.54 0.391,-0.326 17.388,-4.819 19.016,-6.056 1.628,-1.237 1.563,-0.586 1.758,-1.888 0.195,-1.303 0.065,-1.758 0.521,-2.149 0.456,-0.391 4.526,-9.41 4.624,-14.164 0.097,-4.754 -0.977,-10.387 -1.433,-11.169 -0.456,-0.781 -2.409,-2.768 -2.409,-2.768 0,0 -1.367,-5.535 -2.312,-7.456 -0.945,-1.924 -1.498,-2.64 -1.498,-2.64 z"
   id="path827" />
		<path
   style="clip-rule:evenodd;fill:#ffffff;fill-rule:evenodd"
   d="m 461.318,246.467 c -5.568,3.126 -11.649,4.127 -12.08,3.354 -0.844,-1.514 17.224,-11.031 19.748,-9.768 1.442,0.72 -7.402,6.265 -7.668,6.414 z"
   id="path829" />
		<path
   style="clip-rule:evenodd;fill:#ffffff;fill-rule:evenodd"
   d="m 554.957,228.016 c 0,0 25.137,-14.196 37.771,-17.257 12.633,-3.061 37.38,-2.767 40.831,-2.442 3.451,0.326 6.057,0.944 6.057,0.944 l -4.494,13.48 c 0,0 -73.034,5.047 -75.704,5.112 -2.67,0.065 -4.461,0.163 -4.461,0.163 z"
   id="path831" />
		<path
   style="clip-rule:evenodd;fill:#ffffff;fill-rule:evenodd"
   d="m 642.838,209.781 -2.963,12.536 c 0,0 14.522,-1.14 16.736,-2.084 2.214,-0.945 5.112,-5.047 5.112,-5.666 0.001,-0.618 -18.885,-4.786 -18.885,-4.786 z"
   id="path833" />
		<path
   style="clip-rule:evenodd;fill:#ffffff;fill-rule:evenodd"
   d="m 728.251,228.266 c -0.944,-1.921 -1.498,-2.637 -1.498,-2.637 0,0 -0.218,0.383 -4.027,2.011 -3.81,1.628 -6.87,2.052 -7.131,3.452 -0.261,1.4 2.344,4.233 4.265,4.982 1.921,0.749 10.703,-0.352 10.703,-0.352 0,0 -1.367,-5.535 -2.312,-7.456 z"
   id="path835" />
		<g
   id="g847">
			<path
   style="clip-rule:evenodd;fill:#231f20;fill-rule:evenodd"
   d="m 480.228,283.204 c 9.287,9.196 24.271,9.121 33.467,-0.167 9.195,-9.288 9.121,-24.27 -0.167,-33.466 -9.288,-9.195 -24.271,-9.121 -33.466,0.167 -9.196,9.287 -9.121,24.27 0.166,33.466 z m 28.899,-4.688 v 0 c -6.699,6.764 -17.612,6.819 -24.377,0.121 -6.765,-6.699 -6.819,-17.612 -0.122,-24.377 6.698,-6.765 17.612,-6.819 24.378,-0.12 6.765,6.696 6.819,17.61 0.121,24.376 z"
   id="path837" />
			<path
   style="clip-rule:evenodd;fill:#ffffff;fill-rule:evenodd"
   d="m 496.778,246.198 c 11.149,-0.055 20.234,8.939 20.29,20.088 0.056,11.151 -8.94,20.235 -20.09,20.29 -11.149,0.055 -20.234,-8.939 -20.289,-20.089 -0.055,-11.149 8.94,-20.234 20.089,-20.289 z"
   id="path839" />
			<path
   style="clip-rule:evenodd;fill:#231f20;fill-rule:evenodd"
   d="m 496.79,248.599 c -9.824,0.049 -17.748,8.053 -17.699,17.876 0.049,9.825 8.052,17.749 17.875,17.699 9.825,-0.049 17.749,-8.051 17.7,-17.876 -0.049,-9.824 -8.053,-17.747 -17.876,-17.699 z"
   id="path841" />
			<path
   style="clip-rule:evenodd;fill:#231f20;fill-rule:evenodd"
   d="m 500.443,271.166 c 2.405,-2.429 2.386,-6.348 -0.043,-8.752 -2.429,-2.405 -6.347,-2.386 -8.752,0.043 -2.405,2.429 -2.385,6.347 0.043,8.752 2.429,2.405 6.348,2.385 8.752,-0.043 z"
   id="path843" />
			<path
   style="clip-rule:evenodd;fill:#ffffff;fill-rule:evenodd"
   d="m 494.87,285.902 -1.124,-13.46 -10.225,8.826 -1.806,-1.789 8.722,-10.312 -13.469,-0.99 -0.015,-2.542 13.46,-1.125 -8.823,-10.224 1.788,-1.806 10.313,8.722 0.99,-13.471 2.541,-0.012 1.125,13.46 10.225,-8.825 1.807,1.789 -8.723,10.312 13.469,0.99 0.013,2.541 -13.459,1.125 8.824,10.224 -1.788,1.806 -10.312,-8.722 -0.99,13.469 z m -0.012,-16.18 v 0 l 2.406,-0.012 1.692,-1.708 -0.012,-2.408 -1.709,-1.692 -2.406,0.012 -1.693,1.71 0.012,2.405 z"
   id="path845" />
		</g>
		<g
   id="g859">
			<path
   style="clip-rule:evenodd;fill:#231f20;fill-rule:evenodd"
   d="m 665.134,283.204 c 9.287,9.196 24.271,9.121 33.467,-0.167 9.195,-9.288 9.12,-24.27 -0.167,-33.466 -9.287,-9.195 -24.271,-9.121 -33.466,0.167 -9.196,9.287 -9.121,24.27 0.166,33.466 z m 28.9,-4.688 v 0 c -6.699,6.764 -17.612,6.819 -24.377,0.121 -6.765,-6.699 -6.819,-17.612 -0.122,-24.377 6.698,-6.765 17.612,-6.819 24.378,-0.12 6.764,6.696 6.819,17.61 0.121,24.376 z"
   id="path849" />
			<path
   style="clip-rule:evenodd;fill:#ffffff;fill-rule:evenodd"
   d="m 681.685,246.198 c 11.149,-0.055 20.234,8.939 20.29,20.088 0.056,11.151 -8.94,20.235 -20.09,20.29 -11.149,0.055 -20.234,-8.939 -20.289,-20.089 -0.056,-11.149 8.939,-20.234 20.089,-20.289 z"
   id="path851" />
			<path
   style="clip-rule:evenodd;fill:#231f20;fill-rule:evenodd"
   d="m 681.696,248.599 c -9.824,0.049 -17.748,8.053 -17.699,17.876 0.049,9.825 8.052,17.749 17.875,17.699 9.825,-0.049 17.749,-8.051 17.7,-17.876 -0.048,-9.824 -8.052,-17.747 -17.876,-17.699 z"
   id="path853" />
			<path
   style="clip-rule:evenodd;fill:#231f20;fill-rule:evenodd"
   d="m 685.35,271.166 c 2.405,-2.429 2.386,-6.348 -0.043,-8.752 -2.429,-2.405 -6.347,-2.386 -8.752,0.043 -2.405,2.429 -2.385,6.347 0.043,8.752 2.428,2.405 6.347,2.385 8.752,-0.043 z"
   id="path855" />
			<path
   style="clip-rule:evenodd;fill:#ffffff;fill-rule:evenodd"
   d="m 679.776,285.902 -1.125,-13.46 -10.224,8.826 -1.806,-1.789 8.722,-10.312 -13.469,-0.99 -0.015,-2.542 13.46,-1.125 -8.823,-10.224 1.788,-1.806 10.313,8.722 0.99,-13.471 2.541,-0.012 1.125,13.46 10.225,-8.825 1.807,1.789 -8.723,10.312 13.469,0.99 0.013,2.541 -13.459,1.125 8.824,10.224 -1.788,1.806 -10.312,-8.722 -0.99,13.469 z m -0.012,-16.18 v 0 l 2.406,-0.012 1.692,-1.708 -0.012,-2.408 -1.709,-1.692 -2.406,0.012 -1.693,1.71 0.012,2.405 z"
   id="path857" />
		</g>
		<path
   style="clip-rule:evenodd;fill:#231f20;fill-rule:evenodd"
   d="m 543.757,230.245 c 0.391,-0.13 2.507,-0.912 6.479,-2.117 3.972,-1.205 5.633,-1.237 5.633,-1.237 0,0 0,-2.442 1.335,-3.647 1.335,-1.205 5.47,-2.247 7.522,-2.507 4.425,-0.562 4.553,5.788 3.94,6.708 -0.326,0.488 -3.582,1.758 -5.21,2.084 -1.628,0.326 -4.852,-0.293 -5.21,-0.325 -0.357,-0.034 -14.489,1.041 -14.489,1.041 z"
   id="path861" />
	</g><g
   id="g1043"
   transform="translate(661.85959,534.34535)">
		<path
   style="clip-rule:evenodd;fill:#231f20;fill-rule:evenodd"
   d="m 731.828,370.025 c -0.34,0 -16.14,-3.306 -16.14,-3.306 -14.935,-6.663 -31.636,-14.075 -48.268,-17.743 -4.216,-0.93 -8.417,-1.737 -12.597,-2.092 -5.153,-0.437 -34.614,-1.653 -49.587,-0.583 -14.973,1.07 -24.94,2.722 -30.093,4.618 -5.153,1.896 -46.183,22.8 -46.621,23.091 -0.438,0.292 -1.434,0.681 -1.434,0.681 0,0 -31.745,3.378 -39.523,6.198 -7.778,2.82 -16.796,7.803 -18.401,9.212 -1.604,1.41 -3.865,5.931 -4.327,7.754 -0.462,1.823 -0.462,2.552 -0.462,2.552 0,0 -1.872,1.386 -1.969,2.212 -0.097,0.827 -0.486,5.931 0.049,10.647 0.535,4.716 1.167,6.563 1.167,6.563 0,0 -1.118,0.535 -0.632,2.042 0.486,1.507 6.66,3.695 12.494,4.327 5.834,0.632 10.695,1.264 10.695,1.264 h 1.021 c 0,0 0.268,1.823 0.559,1.75 0.292,-0.073 3.451,-0.559 3.451,-0.559 l 39.232,-0.316 2.722,-1.264 126.055,-0.535 4.084,0.486 39.183,-5.348 3.792,1.069 c 0,0 21.536,-3.743 25.717,-4.861 4.181,-1.118 6.709,-4.715 6.952,-5.056 0.243,-0.34 0.924,-0.972 1.167,-1.896 0.243,-0.924 -0.766,-2.115 -0.766,-2.115 0,0 0.45,-10.634 -0.06,-11.412 -0.51,-0.778 -2.795,-2.479 -3.573,-5.348 -0.778,-2.868 -0.194,-8.507 -1.41,-12.931 -1.216,-4.424 -0.632,-6.709 -1.288,-7.827 -0.656,-1.115 -1.189,-1.274 -1.189,-1.274 z"
   id="path1001" />
		<path
   style="clip-rule:evenodd;fill:#ffffff;fill-rule:evenodd"
   d="m 603.871,376.982 c -32.953,1.506 -64.335,2.863 -64.289,2.608 0.097,-0.535 1.896,-3.938 7.778,-8.459 5.882,-4.521 21.244,-13.417 31.356,-16.723 8.696,-2.843 20.053,-4.032 30.7,-4.402 z"
   id="path1003" />
		<path
   style="clip-rule:evenodd;fill:#ffffff;fill-rule:evenodd"
   d="m 678.885,366.878 c 0.243,0.365 0.9,0.681 0.997,1.944 0.097,1.264 -1.021,4.473 -1.288,4.594 -0.126,0.057 -30.926,1.546 -63.499,3.05 0.555,-5.589 2.056,-20.088 2.699,-26.599 11.648,-0.013 26.284,0.579 31.12,1.333 5.299,0.826 14.633,5.007 18.814,7.341 4.181,2.333 11.157,8.337 11.157,8.337 z"
   id="path1005" />
		<path
   style="clip-rule:evenodd;fill:#ffffff;fill-rule:evenodd"
   d="m 727.255,384.89 c 0.173,0.19 4.947,-0.526 7.792,-0.958 -0.121,-1.637 -0.327,-3.291 -0.742,-4.803 -0.79,-2.876 -0.82,-4.848 -0.924,-6.183 -0.269,0.051 -0.509,0.1 -0.633,0.13 -0.389,0.097 -0.583,0.413 -2.285,1.872 -1.702,1.458 -6.198,3.67 -6.49,4.108 -0.291,0.437 3.039,5.566 3.282,5.834 z"
   id="path1007" />
		<path
   style="clip-rule:evenodd;fill:#ffffff;fill-rule:evenodd"
   d="m 467.504,392.221 c -1.206,1.908 -2.352,4.396 -2.666,5.636 -0.277,1.092 -0.388,1.792 -0.432,2.177 1.303,-0.153 2.986,-0.364 4.393,-0.463 2.771,-0.194 5.104,1.021 5.639,1.069 0.535,0.048 10.792,-9.626 10.355,-10.306 -0.437,-0.681 -3.938,-0.389 -9.382,0.097 -3.234,0.289 -6.107,1.144 -7.907,1.79 z"
   id="path1009" />
		<path
   style="clip-rule:evenodd;fill:none;fill-rule:evenodd"
   d="m 464.982,413.572 c 0,0 3.039,0.146 3.841,0.656 0.802,0.51 7.511,8.629 7.244,8.726 -0.267,0.097 -6.369,-0.267 -7.535,-0.923 -1.167,-0.657 -3.5,-7.317 -3.622,-7.705 -0.122,-0.389 0.072,-0.754 0.072,-0.754 z"
   id="path1011" />
		<path
   style="clip-rule:evenodd;fill:#ffffff;fill-rule:evenodd"
   d="m 468.823,414.228 c -0.802,-0.51 -3.841,-0.656 -3.841,-0.656 0,0 -0.194,0.365 -0.073,0.754 0.122,0.389 2.455,7.049 3.622,7.705 1.167,0.656 7.268,1.021 7.535,0.923 0.268,-0.097 -6.441,-8.215 -7.243,-8.726 z"
   id="path1013" />
		<path
   style="clip-rule:evenodd;fill:#231f20;fill-rule:evenodd"
   d="m 539.238,375.774 c 2.236,-2.333 6.328,-4.133 8.122,-4.643 1.795,-0.51 3.448,9.893 2.67,10.671 -0.778,0.778 -11.765,3.792 -13.223,1.847 -1.458,-1.944 2.431,-7.875 2.431,-7.875 z"
   id="path1015" />
		<g
   id="g1027">
			
				<circle
   transform="matrix(0.8485,-0.5292,0.5292,0.8485,-144.403,333.4272)"
   style="clip-rule:evenodd;fill:#231f20;fill-rule:evenodd"
   cx="510.172"
   cy="418.93201"
   id="ellipse1017"
   r="19.931999" />
			
				<circle
   transform="matrix(0.1886,-0.9821,0.9821,0.1886,2.5468,840.9466)"
   style="clip-rule:evenodd;fill:#ffffff;fill-rule:evenodd"
   cx="510.172"
   cy="418.93201"
   id="ellipse1019"
   r="15.397" />
			<path
   style="clip-rule:evenodd;fill:#231f20;fill-rule:evenodd"
   d="m 510.172,432.447 c 7.443,0 13.515,-6.071 13.515,-13.514 0,-7.443 -6.071,-13.515 -13.515,-13.515 -7.444,0 -13.514,6.071 -13.514,13.515 0,7.444 6.07,13.514 13.514,13.514 z"
   id="path1021" />
			<path
   style="clip-rule:evenodd;fill:#ffffff;fill-rule:evenodd"
   d="m 521.72,411.907 c -0.857,2.582 -3.005,4.077 -5.481,4.764 2.115,-2.651 3.121,-5.345 2.713,-8.893 -1.361,-0.9 -3.71,-2.29 -5.582,-1.978 1.22,2.431 0.758,5.007 -0.507,7.244 -0.378,-3.37 -1.572,-5.987 -4.37,-8.207 -1.598,0.326 -4.243,1.004 -5.346,2.548 2.582,0.856 4.077,3.005 4.764,5.48 -2.651,-2.116 -5.345,-3.121 -8.893,-2.713 -0.9,1.361 -2.29,3.71 -1.978,5.582 2.431,-1.22 5.007,-0.758 7.244,0.507 -3.37,0.379 -5.987,1.573 -8.207,4.37 0.326,1.599 1.004,4.243 2.548,5.346 0.856,-2.582 3.005,-4.077 5.48,-4.764 -2.116,2.651 -3.121,5.345 -2.713,8.893 1.361,0.9 3.71,2.29 5.582,1.978 -1.22,-2.431 -0.758,-5.007 0.507,-7.244 0.378,3.37 1.573,5.987 4.37,8.207 1.599,-0.326 4.243,-1.004 5.346,-2.548 -2.582,-0.857 -4.077,-3.005 -4.764,-5.48 2.651,2.115 5.345,3.121 8.893,2.713 0.9,-1.361 2.29,-3.71 1.978,-5.582 -2.431,1.22 -5.007,0.758 -7.244,-0.507 3.37,-0.378 5.987,-1.573 8.207,-4.37 -0.325,-1.598 -1.003,-4.243 -2.547,-5.346 z"
   id="path1023" />
			<path
   style="clip-rule:evenodd;fill:#231f20;fill-rule:evenodd"
   d="m 510.172,421.849 c 1.607,0 2.917,-1.31 2.917,-2.917 0,-1.607 -1.31,-2.917 -2.917,-2.917 -1.607,0 -2.917,1.31 -2.917,2.917 0,1.607 1.31,2.917 2.917,2.917 z"
   id="path1025" />
		</g>
		<g
   id="g1039">
			
				<circle
   transform="matrix(0.8861,-0.4634,0.4634,0.8861,-116.392,364.1529)"
   style="clip-rule:evenodd;fill:#231f20;fill-rule:evenodd"
   cx="682.84802"
   cy="418.93201"
   id="ellipse1029"
   r="19.931999" />
			
				<circle
   transform="matrix(0.9736,-0.2282,0.2282,0.9736,-77.5954,166.9176)"
   style="clip-rule:evenodd;fill:#ffffff;fill-rule:evenodd"
   cx="682.84802"
   cy="418.93201"
   id="ellipse1031"
   r="15.397" />
			<path
   style="clip-rule:evenodd;fill:#231f20;fill-rule:evenodd"
   d="m 682.848,432.447 c 7.444,0 13.515,-6.071 13.515,-13.514 0,-7.443 -6.071,-13.515 -13.515,-13.515 -7.444,0 -13.515,6.071 -13.515,13.515 0,7.444 6.071,13.514 13.515,13.514 z"
   id="path1033" />
			<path
   style="clip-rule:evenodd;fill:#ffffff;fill-rule:evenodd"
   d="m 694.396,411.907 c -0.857,2.582 -3.005,4.077 -5.481,4.764 2.116,-2.651 3.122,-5.345 2.713,-8.893 -1.361,-0.9 -3.71,-2.29 -5.582,-1.978 1.22,2.431 0.758,5.007 -0.507,7.244 -0.378,-3.37 -1.572,-5.987 -4.37,-8.207 -1.599,0.326 -4.243,1.004 -5.346,2.548 2.582,0.856 4.077,3.005 4.764,5.48 -2.651,-2.116 -5.345,-3.121 -8.893,-2.713 -0.9,1.361 -2.29,3.71 -1.978,5.582 2.432,-1.22 5.007,-0.758 7.244,0.507 -3.37,0.379 -5.987,1.573 -8.207,4.37 0.326,1.599 1.004,4.243 2.548,5.346 0.857,-2.582 3.005,-4.077 5.481,-4.764 -2.115,2.651 -3.122,5.345 -2.713,8.893 1.361,0.9 3.71,2.29 5.582,1.978 -1.22,-2.431 -0.758,-5.007 0.507,-7.244 0.379,3.37 1.572,5.987 4.37,8.207 1.598,-0.326 4.243,-1.004 5.346,-2.548 -2.582,-0.857 -4.077,-3.005 -4.764,-5.48 2.651,2.115 5.345,3.121 8.893,2.713 0.9,-1.361 2.29,-3.71 1.978,-5.582 -2.431,1.22 -5.007,0.758 -7.244,-0.507 3.37,-0.378 5.987,-1.573 8.207,-4.37 -0.326,-1.598 -1.004,-4.243 -2.548,-5.346 z"
   id="path1035" />
			<path
   style="clip-rule:evenodd;fill:#231f20;fill-rule:evenodd"
   d="m 682.848,421.849 c 1.607,0 2.917,-1.31 2.917,-2.917 0,-1.607 -1.31,-2.917 -2.917,-2.917 -1.606,0 -2.917,1.31 -2.917,2.917 0,1.607 1.311,2.917 2.917,2.917 z"
   id="path1037" />
		</g>
		<path
   style="clip-rule:evenodd;fill:#ffffff;fill-rule:evenodd"
   d="m 667.42,348.976 c -0.06,-0.012 -1.166,0.401 0.5,1.109 3.844,1.634 47.053,20.077 47.767,16.633 -15.615,-6.965 -31.463,-14.249 -48.267,-17.742 z"
   id="path1041" />
	</g>

<g
   inkscape:groupmode="layer"
   id="layer1"
   inkscape:label="Layer 1"><rect
     style="fill:#cccccc;fill-rule:evenodd;stroke:#000000;stroke-width:8;stroke-linecap:round;stroke-linejoin:round;stroke-opacity:0.0108933"
     id="rect2039"
     width="330.92978"
     height="71.347252"
     x="-459.96204"
     y="59.203037"
     ry="5.33709" /></g><g
   inkscape:groupmode="layer"
   id="layer2"
   inkscape:label="Layer 2"><g
     id="g1185"
     transform="matrix(4.5339323,0,0,4.5339323,-1990.2523,-2164.7085)">
		<path
   style="clip-rule:evenodd;fill:#231f20;fill-rule:evenodd"
   d="m 524.174,543.248 c 0,0 9.244,-6.5 22.666,-13.169 13.422,-6.669 23.869,-10.573 25.283,-11.164 1.414,-0.591 1.351,-0.612 1.351,-0.612 0,0 0.063,-0.232 0.527,-0.507 0.464,-0.274 13.19,-3.145 22.73,-3.525 9.539,-0.38 36.469,-1.013 56.307,0.844 19.838,1.857 62.3,8.779 62.554,9.455 0.253,0.675 -1.309,1.73 -1.773,2.068 -0.464,0.338 -1.984,1.013 -1.984,1.013 0,0 15.449,14.267 16.631,15.533 1.182,1.266 1.435,1.519 1.435,1.519 0,0 0.717,0.295 1.097,0.802 0.38,0.507 2.87,4.094 2.87,4.094 0,0 0.844,0.127 2.449,2.237 1.604,2.11 1.308,7.471 1.351,8.695 0.042,1.224 -0.042,2.068 -0.042,2.068 0,0 3.968,2.786 4.474,3.841 0.507,1.055 1.414,8.569 1.604,10.953 0.19,2.385 -0.063,3.968 -0.063,3.968 0,0 1.203,0.675 1.245,2.026 0.042,1.351 -5.107,11.565 -6.795,13.338 -1.688,1.773 -3.292,2.153 -4.01,2.195 -0.717,0.042 -4.474,0 -4.474,0 l -56.432,2.068 c 0,0 0.591,3.461 -0.929,3.377 -1.519,-0.084 -89.313,0.929 -110.586,1.942 -21.273,1.013 -29.546,1.139 -30.01,0.929 -0.464,-0.211 -0.507,-2.575 -0.507,-2.575 l -60.358,0.675 c 0,0 0.169,2.111 -0.338,2.111 -0.507,0 -10.384,-1.182 -13.085,-1.899 -2.701,-0.718 -7.091,-3.25 -10.383,-5.571 -3.292,-2.322 -2.997,-3.546 -2.617,-3.799 0.38,-0.253 0.802,-0.506 0.802,-0.506 0,0 0.633,-13.296 -0.042,-13.591 -0.676,-0.295 -1.309,-0.675 -1.309,-1.224 0,-0.549 -0.253,-5.487 0.422,-6.458 0.675,-0.971 2.195,-2.195 2.195,-2.195 0,0 0.717,-3.208 1.731,-4.516 1.013,-1.308 1.266,-1.646 1.266,-1.646 0,0 0.76,-2.491 7.387,-5.867 6.627,-3.377 31.235,-11.27 43.728,-13.887 12.494,-2.617 16.187,-3.102 17.981,-3.166 1.794,-0.065 5.651,0.126 5.651,0.126 z"
   id="path1113" />
		<path
   style="clip-rule:evenodd;fill:none;fill-rule:evenodd"
   d="m 681.807,524.4 c 4.558,1.013 7.471,3.546 9.243,6.078 1.773,2.533 1.098,4.981 0.084,5.994 -1.013,1.013 -3.841,1.857 -19.964,4.052 -4.26,0.58 -14.602,1.487 -27.51,2.508 l -0.349,-22.623 c 14.962,0.702 29.916,2.084 38.496,3.991 z m -43.838,19.076 c -35.851,2.771 -86.122,6.122 -86.122,6.122 0,0 6.247,-0.422 7.344,-1.942 1.097,-1.52 2.617,-5.487 1.941,-6.753 -0.675,-1.266 -3.968,-3.208 -3.968,-3.208 0,0 -1.372,-0.443 -2.891,-0.612 -1.52,-0.169 -2.701,-0.19 -2.701,-0.19 0,0 16.482,-9.729 24.84,-12.177 8.357,-2.448 23.595,-3.799 28.829,-4.263 7.652,-0.679 19.989,-0.732 32.873,-0.262 z"
   id="path1115" />
		<path
   style="clip-rule:evenodd;fill:#ffffff;fill-rule:evenodd"
   d="m 733.868,549.6 c 0,0 0.844,0.127 2.449,2.237 1.604,2.11 1.308,7.471 1.351,8.695 0.042,1.224 -0.042,2.068 -0.042,2.068 l -1.177,-0.044 c -1.177,-0.044 -4.242,-0.338 -7.745,-1.604 -3.503,-1.266 -15.448,-9.708 -15.533,-10.13 -0.084,-0.422 -0.084,-0.718 0.76,-1.14 0.844,-0.422 9.286,-1.519 13.633,-1.097 4.347,0.422 6.186,0.844 6.186,0.844 0.075,0.108 0.118,0.171 0.118,0.171 z"
   id="path1117" />
		<path
   style="clip-rule:evenodd;fill:#ffffff;fill-rule:evenodd"
   d="m 729.734,544.532 c -1.058,0.111 -2.858,0.29 -3.269,0.275 -0.591,-0.021 -16.356,-16.715 -16.272,-16.925 0.085,-0.211 1.641,-0.231 1.641,-0.231 0,0 15.449,14.267 16.631,15.533 0.708,0.758 1.082,1.153 1.269,1.348 z"
   id="path1119" />
		<path
   style="clip-rule:evenodd;fill:#ffffff;fill-rule:evenodd"
   d="m 638.115,520.191 -0.146,23.285 c -35.851,2.771 -86.122,6.122 -86.122,6.122 0,0 6.247,-0.422 7.344,-1.942 1.097,-1.52 2.617,-5.487 1.941,-6.753 -0.675,-1.266 -3.968,-3.208 -3.968,-3.208 0,0 -1.372,-0.443 -2.891,-0.612 -1.52,-0.169 -2.701,-0.19 -2.701,-0.19 0,0 16.482,-9.729 24.84,-12.177 8.357,-2.448 23.595,-3.799 28.829,-4.263 7.652,-0.679 19.989,-0.732 32.874,-0.262 z"
   id="path1121" />
		<path
   style="clip-rule:evenodd;fill:#ffffff;fill-rule:evenodd"
   d="m 643.661,543.031 -0.349,-22.623 c 14.961,0.703 29.916,2.085 38.496,3.992 4.558,1.013 7.471,3.546 9.243,6.078 1.773,2.533 1.098,4.981 0.084,5.994 -1.013,1.013 -3.841,1.857 -19.964,4.052 -4.261,0.58 -14.602,1.487 -27.51,2.507 z"
   id="path1123" />
		<path
   style="clip-rule:evenodd;fill:#ffffff;fill-rule:evenodd"
   d="m 576.644,519.019 c 0,0 -19.416,8.737 -30.601,14.562 -11.185,5.825 -18.086,9.94 -19.057,9.983 -0.971,0.042 -2.812,-0.315 -2.812,-0.315 0,0 9.244,-6.5 22.666,-13.169 13.422,-6.669 23.869,-10.573 25.283,-11.164 1.414,-0.591 1.351,-0.612 1.351,-0.612 z"
   id="path1125" />
		<path
   style="clip-rule:evenodd;fill:#ffffff;fill-rule:evenodd"
   d="m 448.161,567.685 c 1.013,-1.308 1.266,-1.646 1.266,-1.646 0,0 10.113,-3.463 14.841,-4.012 4.727,-0.549 5.951,-0.042 6.247,1.266 0.295,1.308 -7.26,9.196 -10.341,10.805 -3.081,1.609 -11.65,0.876 -12.409,0.422 -0.76,-0.454 -1.334,-2.32 -1.334,-2.32 0,0 0.716,-3.206 1.73,-4.515 z"
   id="path1127" />
		<g
   id="g1155">
			
				<circle
   transform="matrix(0.9899,-0.142,0.142,0.9899,-77.3491,105.357)"
   style="clip-rule:evenodd;fill:#231f20;fill-rule:evenodd"
   cx="699.34302"
   cy="594.50299"
   id="ellipse1129"
   r="26.591" />
			<path
   style="clip-rule:evenodd;fill:#ffffff;fill-rule:evenodd"
   d="m 699.343,613.692 c 10.569,0 19.188,-8.62 19.188,-19.189 0,-10.569 -8.62,-19.188 -19.188,-19.188 -10.569,0 -19.188,8.62 -19.188,19.188 0,10.569 8.619,19.189 19.188,19.189 z"
   id="path1131" />
			<path
   style="clip-rule:evenodd;fill:#231f20;fill-rule:evenodd"
   d="m 699.343,611.977 c 9.624,0 17.474,-7.85 17.474,-17.474 0,-9.624 -7.85,-17.474 -17.474,-17.474 -9.625,0 -17.474,7.85 -17.474,17.474 0,9.624 7.85,17.474 17.474,17.474 z"
   id="path1133" />
			<path
   style="clip-rule:evenodd;fill:#ffffff;fill-rule:evenodd"
   d="m 702.312,576.311 c -1.747,5.951 -1.649,12.124 -1.688,18.192 h -1.28 v 0 h -1.28 c -0.039,-6.067 0.059,-12.241 -1.689,-18.192 0.989,0 1.979,0 2.969,0 v 0 c 0.989,0 1.978,0 2.968,0 z"
   id="path1135" />
			<path
   style="clip-rule:evenodd;fill:#ffffff;fill-rule:evenodd"
   d="m 714.306,583.739 c -5.443,2.973 -9.739,7.407 -14.057,11.67 l -0.905,-0.905 v 0 l -0.905,-0.905 c 4.263,-4.318 8.697,-8.614 11.67,-14.057 0.7,0.7 1.399,1.399 2.099,2.099 v 0 c 0.698,0.698 1.398,1.398 2.098,2.098 z"
   id="path1137" />
			<path
   style="clip-rule:evenodd;fill:#ffffff;fill-rule:evenodd"
   d="m 717.535,597.472 c -5.951,-1.747 -12.124,-1.649 -18.192,-1.688 v -1.28 0 -1.28 c 6.068,-0.039 12.241,0.059 18.192,-1.688 0,0.99 0,1.979 0,2.969 v 0 c 0,0.988 0,1.978 0,2.967 z"
   id="path1139" />
			<path
   style="clip-rule:evenodd;fill:#ffffff;fill-rule:evenodd"
   d="m 710.107,609.466 c -2.973,-5.443 -7.407,-9.739 -11.67,-14.057 l 0.905,-0.905 v 0 l 0.905,-0.905 c 4.319,4.263 8.614,8.697 14.058,11.67 -0.7,0.7 -1.399,1.399 -2.099,2.099 v 0 c -0.699,0.699 -1.399,1.399 -2.099,2.098 z"
   id="path1141" />
			<path
   style="clip-rule:evenodd;fill:#ffffff;fill-rule:evenodd"
   d="m 696.374,612.695 c 1.747,-5.951 1.649,-12.124 1.688,-18.192 h 1.28 v 0 h 1.28 c 0.039,6.068 -0.059,12.241 1.689,18.192 -0.99,0 -1.979,0 -2.969,0 v 0 c -0.989,0 -1.979,0 -2.968,0 z"
   id="path1143" />
			<path
   style="clip-rule:evenodd;fill:#ffffff;fill-rule:evenodd"
   d="m 684.38,605.268 c 5.444,-2.973 9.739,-7.407 14.058,-11.67 l 0.905,0.905 v 0 l 0.905,0.905 c -4.263,4.319 -8.697,8.614 -11.67,14.058 -0.7,-0.7 -1.399,-1.399 -2.099,-2.099 v 0 c -0.7,-0.7 -1.399,-1.4 -2.099,-2.099 z"
   id="path1145" />
			<path
   style="clip-rule:evenodd;fill:#ffffff;fill-rule:evenodd"
   d="m 681.151,591.534 c 5.951,1.747 12.124,1.649 18.192,1.688 v 1.28 0 1.28 c -6.068,0.039 -12.241,-0.059 -18.192,1.688 0,-0.989 0,-1.979 0,-2.969 v 0 c 0,-0.987 0,-1.977 0,-2.967 z"
   id="path1147" />
			<path
   style="clip-rule:evenodd;fill:#ffffff;fill-rule:evenodd"
   d="m 688.578,579.54 c 2.973,5.444 7.407,9.739 11.67,14.057 l -0.905,0.905 v 0 l -0.905,0.905 c -4.319,-4.263 -8.614,-8.697 -14.058,-11.67 0.7,-0.7 1.399,-1.399 2.099,-2.099 v 0 c 0.7,-0.698 1.4,-1.398 2.099,-2.098 z"
   id="path1149" />
			<polygon
   style="clip-rule:evenodd;fill:#ffffff;fill-rule:evenodd"
   points="694.755,594.503 694.755,597.152 697.049,598.477 699.343,599.801 701.637,598.477 703.931,597.152 703.931,594.503 703.931,591.854 701.637,590.53 699.343,589.206 697.049,590.53 694.755,591.854 "
   id="polygon1151" />
			<path
   style="clip-rule:evenodd;fill:#231f20;fill-rule:evenodd"
   d="m 699.343,596.455 c 1.075,0 1.952,-0.877 1.952,-1.952 0,-1.075 -0.877,-1.952 -1.952,-1.952 -1.075,0 -1.952,0.877 -1.952,1.952 0,1.075 0.877,1.952 1.952,1.952 z"
   id="path1153" />
		</g>
		<g
   id="g1183">
			
				<circle
   transform="matrix(0.0164,-0.9999,0.9999,0.0164,-100.8722,1086.4642)"
   style="clip-rule:evenodd;fill:#231f20;fill-rule:evenodd"
   cx="501.78699"
   cy="594.50299"
   id="ellipse1157"
   r="26.591" />
			<path
   style="clip-rule:evenodd;fill:#ffffff;fill-rule:evenodd"
   d="m 501.787,613.692 c 10.569,0 19.189,-8.62 19.189,-19.189 0,-10.569 -8.62,-19.188 -19.189,-19.188 -10.569,0 -19.188,8.62 -19.188,19.188 0,10.569 8.619,19.189 19.188,19.189 z"
   id="path1159" />
			<path
   style="clip-rule:evenodd;fill:#231f20;fill-rule:evenodd"
   d="m 501.787,611.977 c 9.625,0 17.474,-7.85 17.474,-17.474 0,-9.624 -7.85,-17.474 -17.474,-17.474 -9.624,0 -17.474,7.85 -17.474,17.474 0,9.624 7.849,17.474 17.474,17.474 z"
   id="path1161" />
			<path
   style="clip-rule:evenodd;fill:#ffffff;fill-rule:evenodd"
   d="m 504.756,576.311 c -1.747,5.951 -1.649,12.124 -1.689,18.192 h -1.28 v 0 h -1.28 c -0.039,-6.067 0.059,-12.241 -1.688,-18.192 0.99,0 1.979,0 2.969,0 v 0 c 0.989,0 1.978,0 2.968,0 z"
   id="path1163" />
			<path
   style="clip-rule:evenodd;fill:#ffffff;fill-rule:evenodd"
   d="m 516.75,583.739 c -5.444,2.973 -9.739,7.407 -14.057,11.67 l -0.905,-0.905 v 0 l -0.905,-0.905 c 4.263,-4.318 8.697,-8.614 11.67,-14.057 0.7,0.7 1.4,1.399 2.099,2.099 v 0 c 0.698,0.698 1.398,1.398 2.098,2.098 z"
   id="path1165" />
			<path
   style="clip-rule:evenodd;fill:#ffffff;fill-rule:evenodd"
   d="m 519.979,597.472 c -5.951,-1.747 -12.124,-1.649 -18.192,-1.688 v -1.28 0 -1.28 c 6.068,-0.039 12.241,0.059 18.192,-1.688 0,0.99 0,1.979 0,2.969 v 0 c 0,0.988 0,1.978 0,2.967 z"
   id="path1167" />
			<path
   style="clip-rule:evenodd;fill:#ffffff;fill-rule:evenodd"
   d="m 512.551,609.466 c -2.973,-5.443 -7.407,-9.739 -11.67,-14.057 l 0.905,-0.905 v 0 l 0.905,-0.905 c 4.318,4.263 8.614,8.697 14.057,11.67 -0.7,0.7 -1.399,1.399 -2.099,2.099 v 0 c -0.698,0.699 -1.398,1.399 -2.098,2.098 z"
   id="path1169" />
			<path
   style="clip-rule:evenodd;fill:#ffffff;fill-rule:evenodd"
   d="m 498.818,612.695 c 1.747,-5.951 1.649,-12.124 1.688,-18.192 h 1.28 v 0 h 1.28 c 0.039,6.068 -0.059,12.241 1.688,18.192 -0.99,0 -1.979,0 -2.969,0 v 0 c -0.988,0 -1.977,0 -2.967,0 z"
   id="path1171" />
			<path
   style="clip-rule:evenodd;fill:#ffffff;fill-rule:evenodd"
   d="m 486.824,605.268 c 5.444,-2.973 9.739,-7.407 14.058,-11.67 l 0.905,0.905 v 0 l 0.905,0.905 c -4.263,4.319 -8.697,8.614 -11.67,14.058 -0.7,-0.7 -1.399,-1.399 -2.099,-2.099 v 0 c -0.7,-0.7 -1.399,-1.4 -2.099,-2.099 z"
   id="path1173" />
			<path
   style="clip-rule:evenodd;fill:#ffffff;fill-rule:evenodd"
   d="m 483.595,591.534 c 5.951,1.747 12.124,1.649 18.192,1.688 v 1.28 0 1.28 c -6.068,0.039 -12.241,-0.059 -18.192,1.688 0,-0.989 0,-1.979 0,-2.969 v 0 c 0,-0.987 0,-1.977 0,-2.967 z"
   id="path1175" />
			<path
   style="clip-rule:evenodd;fill:#ffffff;fill-rule:evenodd"
   d="m 491.023,579.54 c 2.973,5.444 7.407,9.739 11.67,14.057 l -0.905,0.905 v 0 l -0.905,0.905 c -4.318,-4.263 -8.614,-8.697 -14.058,-11.67 0.7,-0.7 1.399,-1.399 2.099,-2.099 v 0 c 0.699,-0.698 1.399,-1.398 2.099,-2.098 z"
   id="path1177" />
			<polygon
   style="clip-rule:evenodd;fill:#ffffff;fill-rule:evenodd"
   points="497.199,594.503 497.199,597.152 499.493,598.477 501.787,599.801 504.081,598.477 506.375,597.152 506.375,594.503 506.375,591.854 504.081,590.53 501.787,589.206 499.493,590.53 497.199,591.854 "
   id="polygon1179" />
			<path
   style="clip-rule:evenodd;fill:#231f20;fill-rule:evenodd"
   d="m 501.787,596.455 c 1.075,0 1.952,-0.877 1.952,-1.952 0,-1.075 -0.877,-1.952 -1.952,-1.952 -1.075,0 -1.952,0.877 -1.952,1.952 0,1.075 0.877,1.952 1.952,1.952 z"
   id="path1181" />
		</g>
	</g></g></svg>
