<?xml version="1.0" encoding="UTF-8" standalone="no"?>
<!-- Generator: Adobe Illustrator 27.5.0, SVG Export Plug-In . SVG Version: 6.00 Build 0)  -->

<svg
   version="1.1"
   x="0px"
   y="0px"
   viewBox="0 0 800 800"
   style="enable-background:new 0 0 800 800;"
   xml:space="preserve"
   id="svg1361"
   sodipodi:docname="REAR.svg"
   inkscape:version="1.1.1 (c3084ef, 2021-09-22)"
   xmlns:inkscape="http://www.inkscape.org/namespaces/inkscape"
   xmlns:sodipodi="http://sodipodi.sourceforge.net/DTD/sodipodi-0.dtd"
   xmlns="http://www.w3.org/2000/svg"
   xmlns:svg="http://www.w3.org/2000/svg"><defs
   id="defs1365">
	
	
	
	
	
	
	
	
	
	
	
	
	
	

		
		
		
		
		
		
		
		
		
		
	</defs><sodipodi:namedview
   id="namedview1363"
   pagecolor="#ffffff"
   bordercolor="#666666"
   borderopacity="1.0"
   inkscape:pageshadow="2"
   inkscape:pageopacity="0.0"
   inkscape:pagecheckerboard="0"
   showgrid="false"
   inkscape:zoom="0.65875"
   inkscape:cx="553.32068"
   inkscape:cy="388.6148"
   inkscape:window-width="1440"
   inkscape:window-height="900"
   inkscape:window-x="0"
   inkscape:window-y="0"
   inkscape:window-maximized="0"
   inkscape:current-layer="layer2" />

<g
   id="g863"
   transform="translate(759.01328,-320.30361)">
		<path
   style="clip-rule:evenodd;fill:#231f20;fill-rule:evenodd"
   d="m 726.754,225.629 c 0.032,-0.488 2.931,-4.656 2.963,-6.121 0.032,-1.465 -0.814,-2.507 -3.028,-2.377 -2.214,0.13 -8.824,1.335 -11.103,1.856 -2.279,0.521 -47.539,-12.503 -63.364,-14.522 -15.824,-2.019 -42.004,-3.973 -54.768,-1.368 -12.764,2.605 -51.934,19.797 -52.944,20.481 -1.01,0.684 -1.107,0.684 -1.107,0.684 0,0 -34.645,2.8 -47.278,4.949 -12.634,2.149 -34.905,10.778 -40.864,13.708 -5.958,2.931 -7.261,5.177 -7.619,6.024 -0.358,0.846 0.554,6.48 0.065,9.052 -0.488,2.572 -0.488,6.74 0.228,8.596 0.716,1.856 1.074,1.27 1.595,2.475 0.521,1.205 1.27,4.526 0.749,4.689 -0.521,0.163 -4.005,1.693 -3.419,2.703 0.586,1.009 13.383,3.126 16.443,3.419 3.061,0.293 4.493,0.391 4.493,0.391 0,0 -0.098,1.889 0.488,1.889 0.586,0 9.606,-1.596 9.606,-1.596 l 57.829,-0.977 c 0,0 116.242,-0.391 116.959,-1.107 0.716,-0.716 0.977,-1.823 0.977,-1.823 l 4.428,-0.391 49.883,-4.884 c 0,0 0.13,2.866 0.521,2.54 0.391,-0.326 17.388,-4.819 19.016,-6.056 1.628,-1.237 1.563,-0.586 1.758,-1.888 0.195,-1.303 0.065,-1.758 0.521,-2.149 0.456,-0.391 4.526,-9.41 4.624,-14.164 0.097,-4.754 -0.977,-10.387 -1.433,-11.169 -0.456,-0.781 -2.409,-2.768 -2.409,-2.768 0,0 -1.367,-5.535 -2.312,-7.456 -0.945,-1.924 -1.498,-2.64 -1.498,-2.64 z"
   id="path827" />
		<path
   style="clip-rule:evenodd;fill:#ffffff;fill-rule:evenodd"
   d="m 461.318,246.467 c -5.568,3.126 -11.649,4.127 -12.08,3.354 -0.844,-1.514 17.224,-11.031 19.748,-9.768 1.442,0.72 -7.402,6.265 -7.668,6.414 z"
   id="path829" />
		<path
   style="clip-rule:evenodd;fill:#ffffff;fill-rule:evenodd"
   d="m 554.957,228.016 c 0,0 25.137,-14.196 37.771,-17.257 12.633,-3.061 37.38,-2.767 40.831,-2.442 3.451,0.326 6.057,0.944 6.057,0.944 l -4.494,13.48 c 0,0 -73.034,5.047 -75.704,5.112 -2.67,0.065 -4.461,0.163 -4.461,0.163 z"
   id="path831" />
		<path
   style="clip-rule:evenodd;fill:#ffffff;fill-rule:evenodd"
   d="m 642.838,209.781 -2.963,12.536 c 0,0 14.522,-1.14 16.736,-2.084 2.214,-0.945 5.112,-5.047 5.112,-5.666 0.001,-0.618 -18.885,-4.786 -18.885,-4.786 z"
   id="path833" />
		<path
   style="clip-rule:evenodd;fill:#ffffff;fill-rule:evenodd"
   d="m 728.251,228.266 c -0.944,-1.921 -1.498,-2.637 -1.498,-2.637 0,0 -0.218,0.383 -4.027,2.011 -3.81,1.628 -6.87,2.052 -7.131,3.452 -0.261,1.4 2.344,4.233 4.265,4.982 1.921,0.749 10.703,-0.352 10.703,-0.352 0,0 -1.367,-5.535 -2.312,-7.456 z"
   id="path835" />
		<g
   id="g847">
			<path
   style="clip-rule:evenodd;fill:#231f20;fill-rule:evenodd"
   d="m 480.228,283.204 c 9.287,9.196 24.271,9.121 33.467,-0.167 9.195,-9.288 9.121,-24.27 -0.167,-33.466 -9.288,-9.195 -24.271,-9.121 -33.466,0.167 -9.196,9.287 -9.121,24.27 0.166,33.466 z m 28.899,-4.688 v 0 c -6.699,6.764 -17.612,6.819 -24.377,0.121 -6.765,-6.699 -6.819,-17.612 -0.122,-24.377 6.698,-6.765 17.612,-6.819 24.378,-0.12 6.765,6.696 6.819,17.61 0.121,24.376 z"
   id="path837" />
			<path
   style="clip-rule:evenodd;fill:#ffffff;fill-rule:evenodd"
   d="m 496.778,246.198 c 11.149,-0.055 20.234,8.939 20.29,20.088 0.056,11.151 -8.94,20.235 -20.09,20.29 -11.149,0.055 -20.234,-8.939 -20.289,-20.089 -0.055,-11.149 8.94,-20.234 20.089,-20.289 z"
   id="path839" />
			<path
   style="clip-rule:evenodd;fill:#231f20;fill-rule:evenodd"
   d="m 496.79,248.599 c -9.824,0.049 -17.748,8.053 -17.699,17.876 0.049,9.825 8.052,17.749 17.875,17.699 9.825,-0.049 17.749,-8.051 17.7,-17.876 -0.049,-9.824 -8.053,-17.747 -17.876,-17.699 z"
   id="path841" />
			<path
   style="clip-rule:evenodd;fill:#231f20;fill-rule:evenodd"
   d="m 500.443,271.166 c 2.405,-2.429 2.386,-6.348 -0.043,-8.752 -2.429,-2.405 -6.347,-2.386 -8.752,0.043 -2.405,2.429 -2.385,6.347 0.043,8.752 2.429,2.405 6.348,2.385 8.752,-0.043 z"
   id="path843" />
			<path
   style="clip-rule:evenodd;fill:#ffffff;fill-rule:evenodd"
   d="m 494.87,285.902 -1.124,-13.46 -10.225,8.826 -1.806,-1.789 8.722,-10.312 -13.469,-0.99 -0.015,-2.542 13.46,-1.125 -8.823,-10.224 1.788,-1.806 10.313,8.722 0.99,-13.471 2.541,-0.012 1.125,13.46 10.225,-8.825 1.807,1.789 -8.723,10.312 13.469,0.99 0.013,2.541 -13.459,1.125 8.824,10.224 -1.788,1.806 -10.312,-8.722 -0.99,13.469 z m -0.012,-16.18 v 0 l 2.406,-0.012 1.692,-1.708 -0.012,-2.408 -1.709,-1.692 -2.406,0.012 -1.693,1.71 0.012,2.405 z"
   id="path845" />
		</g>
		<g
   id="g859">
			<path
   style="clip-rule:evenodd;fill:#231f20;fill-rule:evenodd"
   d="m 665.134,283.204 c 9.287,9.196 24.271,9.121 33.467,-0.167 9.195,-9.288 9.12,-24.27 -0.167,-33.466 -9.287,-9.195 -24.271,-9.121 -33.466,0.167 -9.196,9.287 -9.121,24.27 0.166,33.466 z m 28.9,-4.688 v 0 c -6.699,6.764 -17.612,6.819 -24.377,0.121 -6.765,-6.699 -6.819,-17.612 -0.122,-24.377 6.698,-6.765 17.612,-6.819 24.378,-0.12 6.764,6.696 6.819,17.61 0.121,24.376 z"
   id="path849" />
			<path
   style="clip-rule:evenodd;fill:#ffffff;fill-rule:evenodd"
   d="m 681.685,246.198 c 11.149,-0.055 20.234,8.939 20.29,20.088 0.056,11.151 -8.94,20.235 -20.09,20.29 -11.149,0.055 -20.234,-8.939 -20.289,-20.089 -0.056,-11.149 8.939,-20.234 20.089,-20.289 z"
   id="path851" />
			<path
   style="clip-rule:evenodd;fill:#231f20;fill-rule:evenodd"
   d="m 681.696,248.599 c -9.824,0.049 -17.748,8.053 -17.699,17.876 0.049,9.825 8.052,17.749 17.875,17.699 9.825,-0.049 17.749,-8.051 17.7,-17.876 -0.048,-9.824 -8.052,-17.747 -17.876,-17.699 z"
   id="path853" />
			<path
   style="clip-rule:evenodd;fill:#231f20;fill-rule:evenodd"
   d="m 685.35,271.166 c 2.405,-2.429 2.386,-6.348 -0.043,-8.752 -2.429,-2.405 -6.347,-2.386 -8.752,0.043 -2.405,2.429 -2.385,6.347 0.043,8.752 2.428,2.405 6.347,2.385 8.752,-0.043 z"
   id="path855" />
			<path
   style="clip-rule:evenodd;fill:#ffffff;fill-rule:evenodd"
   d="m 679.776,285.902 -1.125,-13.46 -10.224,8.826 -1.806,-1.789 8.722,-10.312 -13.469,-0.99 -0.015,-2.542 13.46,-1.125 -8.823,-10.224 1.788,-1.806 10.313,8.722 0.99,-13.471 2.541,-0.012 1.125,13.46 10.225,-8.825 1.807,1.789 -8.723,10.312 13.469,0.99 0.013,2.541 -13.459,1.125 8.824,10.224 -1.788,1.806 -10.312,-8.722 -0.99,13.469 z m -0.012,-16.18 v 0 l 2.406,-0.012 1.692,-1.708 -0.012,-2.408 -1.709,-1.692 -2.406,0.012 -1.693,1.71 0.012,2.405 z"
   id="path857" />
		</g>
		<path
   style="clip-rule:evenodd;fill:#231f20;fill-rule:evenodd"
   d="m 543.757,230.245 c 0.391,-0.13 2.507,-0.912 6.479,-2.117 3.972,-1.205 5.633,-1.237 5.633,-1.237 0,0 0,-2.442 1.335,-3.647 1.335,-1.205 5.47,-2.247 7.522,-2.507 4.425,-0.562 4.553,5.788 3.94,6.708 -0.326,0.488 -3.582,1.758 -5.21,2.084 -1.628,0.326 -4.852,-0.293 -5.21,-0.325 -0.357,-0.034 -14.489,1.041 -14.489,1.041 z"
   id="path861" />
	</g><g
   id="g1043"
   transform="translate(661.85959,534.34535)">
		<path
   style="clip-rule:evenodd;fill:#231f20;fill-rule:evenodd"
   d="m 731.828,370.025 c -0.34,0 -16.14,-3.306 -16.14,-3.306 -14.935,-6.663 -31.636,-14.075 -48.268,-17.743 -4.216,-0.93 -8.417,-1.737 -12.597,-2.092 -5.153,-0.437 -34.614,-1.653 -49.587,-0.583 -14.973,1.07 -24.94,2.722 -30.093,4.618 -5.153,1.896 -46.183,22.8 -46.621,23.091 -0.438,0.292 -1.434,0.681 -1.434,0.681 0,0 -31.745,3.378 -39.523,6.198 -7.778,2.82 -16.796,7.803 -18.401,9.212 -1.604,1.41 -3.865,5.931 -4.327,7.754 -0.462,1.823 -0.462,2.552 -0.462,2.552 0,0 -1.872,1.386 -1.969,2.212 -0.097,0.827 -0.486,5.931 0.049,10.647 0.535,4.716 1.167,6.563 1.167,6.563 0,0 -1.118,0.535 -0.632,2.042 0.486,1.507 6.66,3.695 12.494,4.327 5.834,0.632 10.695,1.264 10.695,1.264 h 1.021 c 0,0 0.268,1.823 0.559,1.75 0.292,-0.073 3.451,-0.559 3.451,-0.559 l 39.232,-0.316 2.722,-1.264 126.055,-0.535 4.084,0.486 39.183,-5.348 3.792,1.069 c 0,0 21.536,-3.743 25.717,-4.861 4.181,-1.118 6.709,-4.715 6.952,-5.056 0.243,-0.34 0.924,-0.972 1.167,-1.896 0.243,-0.924 -0.766,-2.115 -0.766,-2.115 0,0 0.45,-10.634 -0.06,-11.412 -0.51,-0.778 -2.795,-2.479 -3.573,-5.348 -0.778,-2.868 -0.194,-8.507 -1.41,-12.931 -1.216,-4.424 -0.632,-6.709 -1.288,-7.827 -0.656,-1.115 -1.189,-1.274 -1.189,-1.274 z"
   id="path1001" />
		<path
   style="clip-rule:evenodd;fill:#ffffff;fill-rule:evenodd"
   d="m 603.871,376.982 c -32.953,1.506 -64.335,2.863 -64.289,2.608 0.097,-0.535 1.896,-3.938 7.778,-8.459 5.882,-4.521 21.244,-13.417 31.356,-16.723 8.696,-2.843 20.053,-4.032 30.7,-4.402 z"
   id="path1003" />
		<path
   style="clip-rule:evenodd;fill:#ffffff;fill-rule:evenodd"
   d="m 678.885,366.878 c 0.243,0.365 0.9,0.681 0.997,1.944 0.097,1.264 -1.021,4.473 -1.288,4.594 -0.126,0.057 -30.926,1.546 -63.499,3.05 0.555,-5.589 2.056,-20.088 2.699,-26.599 11.648,-0.013 26.284,0.579 31.12,1.333 5.299,0.826 14.633,5.007 18.814,7.341 4.181,2.333 11.157,8.337 11.157,8.337 z"
   id="path1005" />
		<path
   style="clip-rule:evenodd;fill:#ffffff;fill-rule:evenodd"
   d="m 727.255,384.89 c 0.173,0.19 4.947,-0.526 7.792,-0.958 -0.121,-1.637 -0.327,-3.291 -0.742,-4.803 -0.79,-2.876 -0.82,-4.848 -0.924,-6.183 -0.269,0.051 -0.509,0.1 -0.633,0.13 -0.389,0.097 -0.583,0.413 -2.285,1.872 -1.702,1.458 -6.198,3.67 -6.49,4.108 -0.291,0.437 3.039,5.566 3.282,5.834 z"
   id="path1007" />
		<path
   style="clip-rule:evenodd;fill:#ffffff;fill-rule:evenodd"
   d="m 467.504,392.221 c -1.206,1.908 -2.352,4.396 -2.666,5.636 -0.277,1.092 -0.388,1.792 -0.432,2.177 1.303,-0.153 2.986,-0.364 4.393,-0.463 2.771,-0.194 5.104,1.021 5.639,1.069 0.535,0.048 10.792,-9.626 10.355,-10.306 -0.437,-0.681 -3.938,-0.389 -9.382,0.097 -3.234,0.289 -6.107,1.144 -7.907,1.79 z"
   id="path1009" />
		<path
   style="clip-rule:evenodd;fill:none;fill-rule:evenodd"
   d="m 464.982,413.572 c 0,0 3.039,0.146 3.841,0.656 0.802,0.51 7.511,8.629 7.244,8.726 -0.267,0.097 -6.369,-0.267 -7.535,-0.923 -1.167,-0.657 -3.5,-7.317 -3.622,-7.705 -0.122,-0.389 0.072,-0.754 0.072,-0.754 z"
   id="path1011" />
		<path
   style="clip-rule:evenodd;fill:#ffffff;fill-rule:evenodd"
   d="m 468.823,414.228 c -0.802,-0.51 -3.841,-0.656 -3.841,-0.656 0,0 -0.194,0.365 -0.073,0.754 0.122,0.389 2.455,7.049 3.622,7.705 1.167,0.656 7.268,1.021 7.535,0.923 0.268,-0.097 -6.441,-8.215 -7.243,-8.726 z"
   id="path1013" />
		<path
   style="clip-rule:evenodd;fill:#231f20;fill-rule:evenodd"
   d="m 539.238,375.774 c 2.236,-2.333 6.328,-4.133 8.122,-4.643 1.795,-0.51 3.448,9.893 2.67,10.671 -0.778,0.778 -11.765,3.792 -13.223,1.847 -1.458,-1.944 2.431,-7.875 2.431,-7.875 z"
   id="path1015" />
		<g
   id="g1027">
			
				<circle
   transform="matrix(0.8485,-0.5292,0.5292,0.8485,-144.403,333.4272)"
   style="clip-rule:evenodd;fill:#231f20;fill-rule:evenodd"
   cx="510.172"
   cy="418.93201"
   id="ellipse1017"
   r="19.931999" />
			
				<circle
   transform="matrix(0.1886,-0.9821,0.9821,0.1886,2.5468,840.9466)"
   style="clip-rule:evenodd;fill:#ffffff;fill-rule:evenodd"
   cx="510.172"
   cy="418.93201"
   id="ellipse1019"
   r="15.397" />
			<path
   style="clip-rule:evenodd;fill:#231f20;fill-rule:evenodd"
   d="m 510.172,432.447 c 7.443,0 13.515,-6.071 13.515,-13.514 0,-7.443 -6.071,-13.515 -13.515,-13.515 -7.444,0 -13.514,6.071 -13.514,13.515 0,7.444 6.07,13.514 13.514,13.514 z"
   id="path1021" />
			<path
   style="clip-rule:evenodd;fill:#ffffff;fill-rule:evenodd"
   d="m 521.72,411.907 c -0.857,2.582 -3.005,4.077 -5.481,4.764 2.115,-2.651 3.121,-5.345 2.713,-8.893 -1.361,-0.9 -3.71,-2.29 -5.582,-1.978 1.22,2.431 0.758,5.007 -0.507,7.244 -0.378,-3.37 -1.572,-5.987 -4.37,-8.207 -1.598,0.326 -4.243,1.004 -5.346,2.548 2.582,0.856 4.077,3.005 4.764,5.48 -2.651,-2.116 -5.345,-3.121 -8.893,-2.713 -0.9,1.361 -2.29,3.71 -1.978,5.582 2.431,-1.22 5.007,-0.758 7.244,0.507 -3.37,0.379 -5.987,1.573 -8.207,4.37 0.326,1.599 1.004,4.243 2.548,5.346 0.856,-2.582 3.005,-4.077 5.48,-4.764 -2.116,2.651 -3.121,5.345 -2.713,8.893 1.361,0.9 3.71,2.29 5.582,1.978 -1.22,-2.431 -0.758,-5.007 0.507,-7.244 0.378,3.37 1.573,5.987 4.37,8.207 1.599,-0.326 4.243,-1.004 5.346,-2.548 -2.582,-0.857 -4.077,-3.005 -4.764,-5.48 2.651,2.115 5.345,3.121 8.893,2.713 0.9,-1.361 2.29,-3.71 1.978,-5.582 -2.431,1.22 -5.007,0.758 -7.244,-0.507 3.37,-0.378 5.987,-1.573 8.207,-4.37 -0.325,-1.598 -1.003,-4.243 -2.547,-5.346 z"
   id="path1023" />
			<path
   style="clip-rule:evenodd;fill:#231f20;fill-rule:evenodd"
   d="m 510.172,421.849 c 1.607,0 2.917,-1.31 2.917,-2.917 0,-1.607 -1.31,-2.917 -2.917,-2.917 -1.607,0 -2.917,1.31 -2.917,2.917 0,1.607 1.31,2.917 2.917,2.917 z"
   id="path1025" />
		</g>
		<g
   id="g1039">
			
				<circle
   transform="matrix(0.8861,-0.4634,0.4634,0.8861,-116.392,364.1529)"
   style="clip-rule:evenodd;fill:#231f20;fill-rule:evenodd"
   cx="682.84802"
   cy="418.93201"
   id="ellipse1029"
   r="19.931999" />
			
				<circle
   transform="matrix(0.9736,-0.2282,0.2282,0.9736,-77.5954,166.9176)"
   style="clip-rule:evenodd;fill:#ffffff;fill-rule:evenodd"
   cx="682.84802"
   cy="418.93201"
   id="ellipse1031"
   r="15.397" />
			<path
   style="clip-rule:evenodd;fill:#231f20;fill-rule:evenodd"
   d="m 682.848,432.447 c 7.444,0 13.515,-6.071 13.515,-13.514 0,-7.443 -6.071,-13.515 -13.515,-13.515 -7.444,0 -13.515,6.071 -13.515,13.515 0,7.444 6.071,13.514 13.515,13.514 z"
   id="path1033" />
			<path
   style="clip-rule:evenodd;fill:#ffffff;fill-rule:evenodd"
   d="m 694.396,411.907 c -0.857,2.582 -3.005,4.077 -5.481,4.764 2.116,-2.651 3.122,-5.345 2.713,-8.893 -1.361,-0.9 -3.71,-2.29 -5.582,-1.978 1.22,2.431 0.758,5.007 -0.507,7.244 -0.378,-3.37 -1.572,-5.987 -4.37,-8.207 -1.599,0.326 -4.243,1.004 -5.346,2.548 2.582,0.856 4.077,3.005 4.764,5.48 -2.651,-2.116 -5.345,-3.121 -8.893,-2.713 -0.9,1.361 -2.29,3.71 -1.978,5.582 2.432,-1.22 5.007,-0.758 7.244,0.507 -3.37,0.379 -5.987,1.573 -8.207,4.37 0.326,1.599 1.004,4.243 2.548,5.346 0.857,-2.582 3.005,-4.077 5.481,-4.764 -2.115,2.651 -3.122,5.345 -2.713,8.893 1.361,0.9 3.71,2.29 5.582,1.978 -1.22,-2.431 -0.758,-5.007 0.507,-7.244 0.379,3.37 1.572,5.987 4.37,8.207 1.598,-0.326 4.243,-1.004 5.346,-2.548 -2.582,-0.857 -4.077,-3.005 -4.764,-5.48 2.651,2.115 5.345,3.121 8.893,2.713 0.9,-1.361 2.29,-3.71 1.978,-5.582 -2.431,1.22 -5.007,0.758 -7.244,-0.507 3.37,-0.378 5.987,-1.573 8.207,-4.37 -0.326,-1.598 -1.004,-4.243 -2.548,-5.346 z"
   id="path1035" />
			<path
   style="clip-rule:evenodd;fill:#231f20;fill-rule:evenodd"
   d="m 682.848,421.849 c 1.607,0 2.917,-1.31 2.917,-2.917 0,-1.607 -1.31,-2.917 -2.917,-2.917 -1.606,0 -2.917,1.31 -2.917,2.917 0,1.607 1.311,2.917 2.917,2.917 z"
   id="path1037" />
		</g>
		<path
   style="clip-rule:evenodd;fill:#ffffff;fill-rule:evenodd"
   d="m 667.42,348.976 c -0.06,-0.012 -1.166,0.401 0.5,1.109 3.844,1.634 47.053,20.077 47.767,16.633 -15.615,-6.965 -31.463,-14.249 -48.267,-17.742 z"
   id="path1041" />
	</g>

<g
   inkscape:groupmode="layer"
   id="layer1"
   inkscape:label="Layer 1" /><g
   inkscape:groupmode="layer"
   id="layer2"
   inkscape:label="Layer 2"><path
     style="clip-rule:evenodd;fill:#231f20;fill-rule:evenodd;stroke-width:2.50995"
     d="m 221.71836,318.26421 c 0,0 23.20201,-16.3147 56.8906,-33.05357 33.6886,-16.73888 59.91008,-26.53774 63.45915,-28.02112 3.54908,-1.48339 3.39095,-1.53609 3.39095,-1.53609 0,0 0.15813,-0.58231 1.32274,-1.27255 1.16462,-0.68773 33.10629,-7.8938 57.05124,-8.84759 23.94245,-0.95378 91.53549,-2.54258 141.32794,2.1184 49.79246,4.66099 156.37009,22.03488 157.00762,23.73161 0.63502,1.69422 -3.28553,4.34222 -4.45015,5.19059 -1.16461,0.84836 -4.97974,2.54258 -4.97974,2.54258 0,0 38.77627,35.8095 41.74303,38.9871 2.96677,3.1776 3.60178,3.81262 3.60178,3.81262 0,0 1.79964,0.74044 2.75342,2.01298 0.95378,1.27255 7.20357,10.27575 7.20357,10.27575 0,0 2.1184,0.31877 6.14687,5.61477 4.02597,5.296 3.28302,18.75186 3.39095,21.82404 0.10542,3.07219 -0.10542,5.19059 -0.10542,5.19059 0,0 9.9595,6.99273 11.22953,9.64073 1.27255,2.648 3.54908,21.50779 4.02597,27.49152 0.47689,5.98623 -0.15813,9.95949 -0.15813,9.95949 0,0 3.01948,1.69422 3.12489,5.08517 0.10542,3.39094 -12.81833,29.02761 -17.05513,33.47775 -4.2368,4.45015 -8.26277,5.40393 -10.06491,5.50935 -1.79964,0.10542 -11.22953,0 -11.22953,0 l -141.64169,5.19058 c 0,0 1.48339,8.68695 -2.33174,8.47612 -3.81262,-0.21084 -224.17146,2.33174 -277.5657,4.87433 -53.39424,2.54258 -74.15908,2.85883 -75.3237,2.33174 -1.16462,-0.5296 -1.27254,-6.46313 -1.27254,-6.46313 l -151.495766,1.69422 c 0,0 0.424182,5.29851 -0.848364,5.29851 -1.272546,0 -26.063355,-2.96676 -32.842739,-4.7664 -6.779384,-1.80215 -17.798079,-8.15735 -26.060845,-13.98295 -8.262766,-5.82811 -7.52233,-8.90029 -6.568548,-9.53531 0.953783,-0.63502 2.012983,-1.27004 2.012983,-1.27004 0,0 1.5888,-33.37234 -0.105418,-34.11277 -1.696729,-0.74044 -3.285529,-1.69422 -3.285529,-3.07219 0,-1.37796 -0.635018,-13.77211 1.0592,-16.20927 1.694219,-2.43717 5.509348,-5.50935 5.509348,-5.50935 0,0 1.799636,-8.05193 4.344729,-11.33495 2.542583,-3.28302 3.177601,-4.13138 3.177601,-4.13138 0,0 1.907564,-6.2523 18.541025,-14.7259 16.63346,-8.47611 78.398393,-28.28717 109.755233,-34.85572 31.35936,-6.56855 40.62862,-7.78588 45.13147,-7.94651 4.50286,-0.16315 14.18375,0.31625 14.18375,0.31625 z"
     id="path1113" /><path
     style="clip-rule:evenodd;fill:none;fill-rule:evenodd;stroke-width:2.50995"
     d="m 617.36983,270.95661 c 11.44037,2.54258 18.75186,8.90029 23.1995,15.2555 4.45015,6.35771 2.75593,12.50207 0.21083,15.04466 -2.54258,2.54258 -9.64073,4.66098 -50.1087,10.17033 -10.6924,1.45577 -36.65034,3.7323 -69.04882,6.29496 l -0.87597,-56.78267 c 37.55392,1.76198 75.08776,5.23074 96.62316,10.01722 z M 507.3385,318.83648 c -89.98434,6.95508 -216.1622,15.36593 -216.1622,15.36593 0,0 15.67968,-1.0592 18.4331,-4.87433 2.75341,-3.81512 6.56854,-13.77211 4.87182,-16.94971 -1.69422,-3.1776 -9.9595,-8.05193 -9.9595,-8.05193 0,0 -3.44366,-1.11191 -7.25627,-1.53609 -3.81513,-0.42418 -6.77939,-0.47689 -6.77939,-0.47689 0,0 41.36905,-24.41934 62.34724,-30.5637 20.97568,-6.14437 59.22235,-9.53532 72.35945,-10.69994 19.20616,-1.70425 50.17145,-1.83728 82.50969,-0.6576 z"
     id="path1115" /><path
     style="clip-rule:evenodd;fill:#ffffff;fill-rule:evenodd;stroke-width:2.50995"
     d="m 748.04051,334.20743 c 0,0 2.1184,0.31877 6.14687,5.61477 4.02597,5.296 3.28302,18.75186 3.39095,21.82404 0.10542,3.07219 -0.10542,5.19059 -0.10542,5.19059 l -2.95421,-0.11044 c -2.95422,-0.11044 -10.64722,-0.84837 -19.43959,-4.02597 -8.79237,-3.1776 -38.77376,-24.36662 -38.98711,-25.42582 -0.21083,-1.0592 -0.21083,-1.80215 1.90757,-2.86135 2.1184,-1.0592 23.30743,-3.81262 34.21819,-2.75342 10.91077,1.0592 15.52657,2.1184 15.52657,2.1184 0.18825,0.27108 0.29618,0.4292 0.29618,0.4292 z"
     id="path1117" /><path
     style="clip-rule:evenodd;fill:#ffffff;fill-rule:evenodd;stroke-width:2.50995"
     d="m 737.66436,321.48699 c -2.65553,0.27861 -7.17345,0.72789 -8.20504,0.69024 -1.48338,-0.0527 -41.05279,-41.95387 -40.84196,-42.48096 0.21335,-0.5296 4.11884,-0.5798 4.11884,-0.5798 0,0 38.77627,35.8095 41.74303,38.9871 1.77705,1.90255 2.71577,2.89398 3.18513,3.38342 z"
     id="path1119" /><path
     style="clip-rule:evenodd;fill:#ffffff;fill-rule:evenodd;stroke-width:2.50995"
     d="m 353.41561,257.45055 c 0,0 -48.73325,21.92946 -76.80708,36.54994 -28.07383,14.62048 -45.39502,24.94894 -47.83218,25.05687 -2.43716,0.10541 -7.05799,-0.79064 -7.05799,-0.79064 0,0 23.20201,-16.3147 56.8906,-33.05357 33.6886,-16.73888 59.91008,-26.53774 63.45915,-28.02112 3.54908,-1.48339 3.39095,-1.53609 3.39095,-1.53609 z"
     id="path1125" /><path
     style="clip-rule:evenodd;fill:#ffffff;fill-rule:evenodd;stroke-width:2.50995"
     d="m 30.929281,379.59994 c 2.542583,-3.28302 3.177601,-4.13138 3.177601,-4.13138 0,0 25.383157,-8.69197 37.250217,-10.06994 11.864549,-1.37796 14.936732,-0.10541 15.679678,3.1776 0.740436,3.28302 -18.222261,23.08153 -25.955427,27.12005 -7.733166,4.03851 -29.240956,2.19872 -31.146011,1.0592 -1.907564,-1.13952 -3.348277,-5.82309 -3.348277,-5.82309 0,0 1.797126,-8.04691 4.342219,-11.33244 z"
     id="path1127" /><g
     id="g1183"
     transform="matrix(2.5099533,0,0,2.5099533,-1093.9339,-1045.2629)">
			
				<circle
   transform="matrix(0.0164,-0.9999,0.9999,0.0164,-100.8722,1086.4642)"
   style="clip-rule:evenodd;fill:#231f20;fill-rule:evenodd"
   cx="501.78699"
   cy="594.50299"
   id="ellipse1157"
   r="26.591" />
			<path
   style="clip-rule:evenodd;fill:#ffffff;fill-rule:evenodd"
   d="m 501.787,613.692 c 10.569,0 19.189,-8.62 19.189,-19.189 0,-10.569 -8.62,-19.188 -19.189,-19.188 -10.569,0 -19.188,8.62 -19.188,19.188 0,10.569 8.619,19.189 19.188,19.189 z"
   id="path1159" />
			<path
   style="clip-rule:evenodd;fill:#231f20;fill-rule:evenodd"
   d="m 501.787,611.977 c 9.625,0 17.474,-7.85 17.474,-17.474 0,-9.624 -7.85,-17.474 -17.474,-17.474 -9.624,0 -17.474,7.85 -17.474,17.474 0,9.624 7.849,17.474 17.474,17.474 z"
   id="path1161" />
			<path
   style="clip-rule:evenodd;fill:#ffffff;fill-rule:evenodd"
   d="m 504.756,576.311 c -1.747,5.951 -1.649,12.124 -1.689,18.192 h -1.28 v 0 h -1.28 c -0.039,-6.067 0.059,-12.241 -1.688,-18.192 0.99,0 1.979,0 2.969,0 v 0 c 0.989,0 1.978,0 2.968,0 z"
   id="path1163" />
			<path
   style="clip-rule:evenodd;fill:#ffffff;fill-rule:evenodd"
   d="m 516.75,583.739 c -5.444,2.973 -9.739,7.407 -14.057,11.67 l -0.905,-0.905 v 0 l -0.905,-0.905 c 4.263,-4.318 8.697,-8.614 11.67,-14.057 0.7,0.7 1.4,1.399 2.099,2.099 v 0 c 0.698,0.698 1.398,1.398 2.098,2.098 z"
   id="path1165" />
			<path
   style="clip-rule:evenodd;fill:#ffffff;fill-rule:evenodd"
   d="m 519.979,597.472 c -5.951,-1.747 -12.124,-1.649 -18.192,-1.688 v -1.28 0 -1.28 c 6.068,-0.039 12.241,0.059 18.192,-1.688 0,0.99 0,1.979 0,2.969 v 0 c 0,0.988 0,1.978 0,2.967 z"
   id="path1167" />
			<path
   style="clip-rule:evenodd;fill:#ffffff;fill-rule:evenodd"
   d="m 512.551,609.466 c -2.973,-5.443 -7.407,-9.739 -11.67,-14.057 l 0.905,-0.905 v 0 l 0.905,-0.905 c 4.318,4.263 8.614,8.697 14.057,11.67 -0.7,0.7 -1.399,1.399 -2.099,2.099 v 0 c -0.698,0.699 -1.398,1.399 -2.098,2.098 z"
   id="path1169" />
			<path
   style="clip-rule:evenodd;fill:#ffffff;fill-rule:evenodd"
   d="m 498.818,612.695 c 1.747,-5.951 1.649,-12.124 1.688,-18.192 h 1.28 v 0 h 1.28 c 0.039,6.068 -0.059,12.241 1.688,18.192 -0.99,0 -1.979,0 -2.969,0 v 0 c -0.988,0 -1.977,0 -2.967,0 z"
   id="path1171" />
			<path
   style="clip-rule:evenodd;fill:#ffffff;fill-rule:evenodd"
   d="m 486.824,605.268 c 5.444,-2.973 9.739,-7.407 14.058,-11.67 l 0.905,0.905 v 0 l 0.905,0.905 c -4.263,4.319 -8.697,8.614 -11.67,14.058 -0.7,-0.7 -1.399,-1.399 -2.099,-2.099 v 0 c -0.7,-0.7 -1.399,-1.4 -2.099,-2.099 z"
   id="path1173" />
			<path
   style="clip-rule:evenodd;fill:#ffffff;fill-rule:evenodd"
   d="m 483.595,591.534 c 5.951,1.747 12.124,1.649 18.192,1.688 v 1.28 0 1.28 c -6.068,0.039 -12.241,-0.059 -18.192,1.688 0,-0.989 0,-1.979 0,-2.969 v 0 c 0,-0.987 0,-1.977 0,-2.967 z"
   id="path1175" />
			<path
   style="clip-rule:evenodd;fill:#ffffff;fill-rule:evenodd"
   d="m 491.023,579.54 c 2.973,5.444 7.407,9.739 11.67,14.057 l -0.905,0.905 v 0 l -0.905,0.905 c -4.318,-4.263 -8.614,-8.697 -14.058,-11.67 0.7,-0.7 1.399,-1.399 2.099,-2.099 v 0 c 0.699,-0.698 1.399,-1.398 2.099,-2.098 z"
   id="path1177" />
			<polygon
   style="clip-rule:evenodd;fill:#ffffff;fill-rule:evenodd"
   points="501.787,599.801 504.081,598.477 506.375,597.152 506.375,594.503 506.375,591.854 504.081,590.53 501.787,589.206 499.493,590.53 497.199,591.854 497.199,594.503 497.199,597.152 499.493,598.477 "
   id="polygon1179" />
			<path
   style="clip-rule:evenodd;fill:#231f20;fill-rule:evenodd"
   d="m 501.787,596.455 c 1.075,0 1.952,-0.877 1.952,-1.952 0,-1.075 -0.877,-1.952 -1.952,-1.952 -1.075,0 -1.952,0.877 -1.952,1.952 0,1.075 0.877,1.952 1.952,1.952 z"
   id="path1181" />
		</g><rect
     style="fill:#f9f9f9;fill-rule:evenodd;stroke:#000000;stroke-width:10.8292;stroke-linecap:round;stroke-linejoin:round;stroke-opacity:0.0108933"
     id="rect2039"
     width="327.67194"
     height="132.035"
     x="277.55005"
     y="329.58026"
     ry="9.8768015"
     transform="matrix(0.99958037,-0.02896697,0.03728566,0.99930465,0,0)" /><g
     id="g1155"
     transform="matrix(2.5099533,0,0,2.5099533,-1093.9339,-1045.2629)"
     style="enable-background:new 0 0 800 800">
			
				<circle
   transform="matrix(0.9899,-0.142,0.142,0.9899,-77.3491,105.357)"
   style="clip-rule:evenodd;fill:#231f20;fill-rule:evenodd"
   cx="699.34302"
   cy="594.50299"
   id="ellipse1129"
   r="26.591" />
			<path
   style="clip-rule:evenodd;fill:#ffffff;fill-rule:evenodd"
   d="m 699.343,613.692 c 10.569,0 19.188,-8.62 19.188,-19.189 0,-10.569 -8.62,-19.188 -19.188,-19.188 -10.569,0 -19.188,8.62 -19.188,19.188 0,10.569 8.619,19.189 19.188,19.189 z"
   id="path1131" />
			<path
   style="clip-rule:evenodd;fill:#231f20;fill-rule:evenodd"
   d="m 699.343,611.977 c 9.624,0 17.474,-7.85 17.474,-17.474 0,-9.624 -7.85,-17.474 -17.474,-17.474 -9.625,0 -17.474,7.85 -17.474,17.474 0,9.624 7.85,17.474 17.474,17.474 z"
   id="path1133" />
			<path
   style="clip-rule:evenodd;fill:#ffffff;fill-rule:evenodd"
   d="m 702.312,576.311 c -1.747,5.951 -1.649,12.124 -1.688,18.192 h -1.28 v 0 h -1.28 c -0.039,-6.067 0.059,-12.241 -1.689,-18.192 0.989,0 1.979,0 2.969,0 v 0 c 0.989,0 1.978,0 2.968,0 z"
   id="path1135" />
			<path
   style="clip-rule:evenodd;fill:#ffffff;fill-rule:evenodd"
   d="m 714.306,583.739 c -5.443,2.973 -9.739,7.407 -14.057,11.67 l -0.905,-0.905 v 0 l -0.905,-0.905 c 4.263,-4.318 8.697,-8.614 11.67,-14.057 0.7,0.7 1.399,1.399 2.099,2.099 v 0 c 0.698,0.698 1.398,1.398 2.098,2.098 z"
   id="path1137" />
			<path
   style="clip-rule:evenodd;fill:#ffffff;fill-rule:evenodd"
   d="m 717.535,597.472 c -5.951,-1.747 -12.124,-1.649 -18.192,-1.688 v -1.28 0 -1.28 c 6.068,-0.039 12.241,0.059 18.192,-1.688 0,0.99 0,1.979 0,2.969 v 0 c 0,0.988 0,1.978 0,2.967 z"
   id="path1139" />
			<path
   style="clip-rule:evenodd;fill:#ffffff;fill-rule:evenodd"
   d="m 710.107,609.466 c -2.973,-5.443 -7.407,-9.739 -11.67,-14.057 l 0.905,-0.905 v 0 l 0.905,-0.905 c 4.319,4.263 8.614,8.697 14.058,11.67 -0.7,0.7 -1.399,1.399 -2.099,2.099 v 0 c -0.699,0.699 -1.399,1.399 -2.099,2.098 z"
   id="path1141" />
			<path
   style="clip-rule:evenodd;fill:#ffffff;fill-rule:evenodd"
   d="m 696.374,612.695 c 1.747,-5.951 1.649,-12.124 1.688,-18.192 h 1.28 v 0 h 1.28 c 0.039,6.068 -0.059,12.241 1.689,18.192 -0.99,0 -1.979,0 -2.969,0 v 0 c -0.989,0 -1.979,0 -2.968,0 z"
   id="path1143" />
			<path
   style="clip-rule:evenodd;fill:#ffffff;fill-rule:evenodd"
   d="m 684.38,605.268 c 5.444,-2.973 9.739,-7.407 14.058,-11.67 l 0.905,0.905 v 0 l 0.905,0.905 c -4.263,4.319 -8.697,8.614 -11.67,14.058 -0.7,-0.7 -1.399,-1.399 -2.099,-2.099 v 0 c -0.7,-0.7 -1.399,-1.4 -2.099,-2.099 z"
   id="path1145" />
			<path
   style="clip-rule:evenodd;fill:#ffffff;fill-rule:evenodd"
   d="m 681.151,591.534 c 5.951,1.747 12.124,1.649 18.192,1.688 v 1.28 0 1.28 c -6.068,0.039 -12.241,-0.059 -18.192,1.688 0,-0.989 0,-1.979 0,-2.969 v 0 c 0,-0.987 0,-1.977 0,-2.967 z"
   id="path1147" />
			<path
   style="clip-rule:evenodd;fill:#ffffff;fill-rule:evenodd"
   d="m 688.578,579.54 c 2.973,5.444 7.407,9.739 11.67,14.057 l -0.905,0.905 v 0 l -0.905,0.905 c -4.319,-4.263 -8.614,-8.697 -14.058,-11.67 0.7,-0.7 1.399,-1.399 2.099,-2.099 v 0 c 0.7,-0.698 1.4,-1.398 2.099,-2.098 z"
   id="path1149" />
			<polygon
   style="clip-rule:evenodd;fill:#ffffff;fill-rule:evenodd"
   points="699.343,599.801 701.637,598.477 703.931,597.152 703.931,594.503 703.931,591.854 701.637,590.53 699.343,589.206 697.049,590.53 694.755,591.854 694.755,594.503 694.755,597.152 697.049,598.477 "
   id="polygon1151" />
			<path
   style="clip-rule:evenodd;fill:#231f20;fill-rule:evenodd"
   d="m 699.343,596.455 c 1.075,0 1.952,-0.877 1.952,-1.952 0,-1.075 -0.877,-1.952 -1.952,-1.952 -1.075,0 -1.952,0.877 -1.952,1.952 0,1.075 0.877,1.952 1.952,1.952 z"
   id="path1153" />
		</g><ellipse
     style="fill:#f9f9f9;fill-rule:evenodd;stroke:#000000;stroke-width:16.4087;stroke-linecap:round;stroke-linejoin:round;stroke-opacity:0.0108933"
     id="path3624"
     cx="453.12537"
     cy="326.69376"
     rx="160.989"
     ry="68.014961" /><rect
     style="fill:#231f20;fill-opacity:1;fill-rule:evenodd;stroke:#000000;stroke-width:5.32863;stroke-linecap:round;stroke-linejoin:round;stroke-opacity:0.0108933"
     id="rect3728"
     width="7.8809147"
     height="198.48386"
     x="459.54868"
     y="256.80151"
     ry="6.8414817" /><g
     id="g4603"><rect
       style="fill:#231f20;fill-opacity:1;fill-rule:evenodd;stroke:#000000;stroke-width:4.86795;stroke-linecap:round;stroke-linejoin:round;stroke-opacity:0.0108933"
       id="rect4517"
       width="17.612482"
       height="120.33771"
       x="502.43283"
       y="274.75378"
       ry="4.598742"
       transform="matrix(0.99390658,0.11022575,-0.21317788,0.9770134,0,0)" /><rect
       style="fill:#231f20;fill-opacity:1;fill-rule:evenodd;stroke:#000000;stroke-width:5.35497;stroke-linecap:round;stroke-linejoin:round;stroke-opacity:0.0108933"
       id="rect4519"
       width="95.515678"
       height="28.451479"
       x="338.99847"
       y="413.9906"
       ry="3.5724976" /></g><g
     id="g4609"
     transform="translate(152.95163,-7.94087)"><rect
       style="fill:#231f20;fill-opacity:1;fill-rule:evenodd;stroke:#000000;stroke-width:4.86795;stroke-linecap:round;stroke-linejoin:round;stroke-opacity:0.0108933"
       id="rect4605"
       width="17.612482"
       height="120.33771"
       x="502.43283"
       y="274.75378"
       ry="4.598742"
       transform="matrix(0.99390658,0.11022575,-0.21317788,0.9770134,0,0)" /><rect
       style="fill:#231f20;fill-opacity:1;fill-rule:evenodd;stroke:#000000;stroke-width:5.35497;stroke-linecap:round;stroke-linejoin:round;stroke-opacity:0.0108933"
       id="rect4607"
       width="95.515678"
       height="28.451479"
       x="338.99847"
       y="413.9906"
       ry="3.5724976" /></g></g></svg>
